<svg width="65" height="66" viewBox="0 0 65 66" fill="none" xmlns="http://www.w3.org/2000/svg">
<rect y="0.854492" width="65" height="65" rx="5" fill="#F0F0F0"/>
<path d="M52.1414 53.8543H19.328C19.2301 53.827 19.1345 53.7906 19.0343 53.7769C15.2451 53.2487 12.5376 49.4716 13.2663 45.7286C13.9221 42.3613 16.7253 40.0413 20.1569 40.0413C30.593 40.0391 41.029 40.0436 51.4628 40.0322C52.2006 40.0322 52.7244 40.2622 52.9976 40.9634V52.9937C52.9976 53.5993 52.9976 53.852 52.1391 53.852L52.1414 53.8543ZM21.0951 47.0059C21.1065 46.3388 20.5509 45.7559 19.9064 45.7582C19.3007 45.7582 18.7292 46.291 18.7109 46.8738C18.6882 47.5341 19.237 48.1306 19.8814 48.142C20.503 48.1533 21.086 47.6069 21.0951 47.0059Z" fill="#FF7144"/>
<path opacity="0.7" d="M22.3223 37.5851C23.3789 36.9727 24.4332 36.3602 25.4897 35.75C31.6152 32.2143 37.743 28.6785 43.8707 25.1427C44.7246 24.6487 45.3349 24.808 45.8245 25.6527C47.6462 28.806 49.4656 31.9593 51.2873 35.1126C51.8088 36.0141 51.6312 36.5674 50.7545 37.1297C50.1146 37.5396 49.4611 37.683 48.7028 37.6807C40.0588 37.6602 31.4148 37.6671 22.7709 37.6671C22.6297 37.6671 22.4885 37.6671 22.3473 37.6671C22.3405 37.6397 22.3314 37.6124 22.3245 37.5828L22.3223 37.5851Z" fill="#FF7144"/>
<path opacity="0.5" d="M17.272 37.73C17.379 37.5319 17.4336 37.4203 17.4951 37.3156C21.5848 30.2327 25.6746 23.1497 29.7643 16.0645C30.2516 15.2221 30.8505 15.0536 31.6839 15.534C34.8605 17.3645 38.0371 19.1973 41.2114 21.0324C42.0426 21.5128 42.1723 22.1138 41.7397 22.963C41.3776 23.6757 40.8562 24.1515 40.1639 24.5476C32.6745 28.8438 25.2032 33.1697 17.7251 37.4863C17.6067 37.5546 17.4837 37.6161 17.2742 37.7277L17.272 37.73Z" fill="#FF7144"/>
<path opacity="0.3" d="M13 40.1713C13 40.0415 13 39.9118 13 39.7843C13 31.6358 13 23.4874 13 15.3366C13 14.2757 13.4235 13.8545 14.4915 13.8545C18.1235 13.8545 21.7556 13.8545 25.3876 13.8545C26.3645 13.8545 26.7789 14.3098 26.829 15.2888C26.8677 16.0607 26.6628 16.7095 26.2756 17.3766C21.9377 24.8443 17.6271 32.3257 13.3097 39.8025C13.2345 39.9345 13.1526 40.0643 13.0751 40.1941C13.0501 40.1872 13.025 40.1781 13 40.1713V40.1713Z" fill="#FF7144"/>
</svg>
