<svg width="87" height="104" viewBox="0 0 87 104" fill="none" xmlns="http://www.w3.org/2000/svg">
<path d="M10.503 89C8.65672 88.9951 6.84421 88.4994 5.24766 87.5627C3.64375 86.6382 2.31233 85.2992 1.39014 83.683C0.467955 82.0669 -0.0117747 80.2319 0.000220299 78.3666V24.637C-0.0118061 22.7707 0.468771 20.9349 1.39248 19.3185C2.31618 17.7022 3.64964 16.3637 5.25558 15.4409C6.84806 14.4974 8.66082 14 10.507 14C12.3532 14 14.1659 14.4974 15.7584 15.4409L58.5979 40.415C59.2563 40.8376 59.7275 41.5009 59.9131 42.2662C60.0987 43.0315 59.9844 43.8396 59.5941 44.5218C59.2037 45.204 58.5675 45.7074 57.8183 45.9269C57.0692 46.1464 56.265 46.065 55.5739 45.6997L12.7502 20.7236C12.0699 20.3287 11.2989 20.1212 10.5143 20.1221C9.72964 20.1229 8.959 20.3319 8.27951 20.7282C7.60002 21.1245 7.03552 21.6942 6.64254 22.3802C6.24956 23.0662 6.04189 23.8444 6.04032 24.637V78.3646C6.04189 79.1572 6.24956 79.9354 6.64254 80.6214C7.03552 81.3074 7.60002 81.8771 8.27951 82.2734C8.959 82.6697 9.72964 82.8787 10.5143 82.8795C11.2989 82.8804 12.0699 82.6729 12.7502 82.2781C13.444 81.874 14.2682 81.765 15.0416 81.9748C15.8149 82.1847 16.4741 82.6962 16.8741 83.397C17.274 84.0978 17.382 84.9304 17.1743 85.7116C16.9665 86.4929 16.4601 87.1587 15.7663 87.5627C14.1677 88.5015 12.3521 88.9973 10.503 89V89Z" fill="#FF4444"/>
<path d="M86.9997 66.6381C87.0119 68.4975 86.533 70.3266 85.6122 71.9377C84.6914 73.5489 83.3618 74.8839 81.76 75.8058L35.731 102.586C34.1333 103.515 32.3209 104.003 30.4766 104C28.6323 103.997 26.8213 103.505 25.2261 102.572C23.6309 101.639 22.3079 100.298 21.3904 98.6851C20.4729 97.0723 19.9933 95.2441 20.0001 93.3848V39.8894C20.0397 39.1097 20.3748 38.3752 20.9362 37.8375C21.4976 37.2998 22.2424 37 23.0168 37C23.7912 37 24.536 37.2998 25.0974 37.8375C25.6588 38.3752 25.9939 39.1097 26.0335 39.8894V93.3848C26.0355 94.1748 26.2432 94.9504 26.6358 95.634C27.0285 96.3176 27.5924 96.8852 28.2711 97.28C28.9498 97.6749 29.7195 97.8831 30.5031 97.8838C31.2866 97.8845 32.0567 97.6777 32.7361 97.2842L78.7314 70.5295C79.4116 70.1358 79.9767 69.5681 80.3697 68.8838C80.7627 68.1995 80.9697 67.4228 80.9697 66.6321C80.9697 65.8414 80.7627 65.0647 80.3697 64.3804C79.9767 63.6961 79.4116 63.1285 78.7314 62.7348C78.3705 62.5443 78.0515 62.2823 77.7936 61.9644C77.5357 61.6465 77.3443 61.2793 77.2308 60.8849C77.1173 60.4905 77.0842 60.077 77.1333 59.6693C77.1824 59.2616 77.3129 58.8682 77.5167 58.5126C77.7206 58.1571 77.9937 57.8468 78.3196 57.6004C78.6455 57.354 79.0174 57.1766 79.4131 57.0788C79.8087 56.9811 80.2199 56.9651 80.6219 57.0317C81.0239 57.0983 81.4083 57.2462 81.7521 57.4664C83.3565 58.387 84.6885 59.7221 85.6109 61.3342C86.5332 62.9463 87.0127 64.7771 86.9997 66.6381V66.6381Z" fill="#FF4444"/>
<path d="M86.9998 37.5271C87.0118 39.3954 86.5319 41.2331 85.6095 42.8511C84.6871 44.4692 83.3555 45.809 81.7519 46.7328L35.7477 73.6344C35.0556 74.0118 34.2454 74.1011 33.4894 73.8832C32.7334 73.6653 32.091 73.1575 31.6989 72.4677C31.3067 71.7778 31.1956 70.9603 31.3893 70.1888C31.5829 69.4174 32.066 68.7528 32.7359 68.3363L78.7322 41.4507C79.4121 41.0553 79.9771 40.4853 80.3699 39.7982C80.7628 39.1111 80.9697 38.3311 80.9697 37.5371C80.9697 36.7432 80.7628 35.9632 80.3699 35.2761C79.9771 34.589 79.4121 34.019 78.7322 33.6236L32.7359 6.71797C32.0565 6.32268 31.2866 6.11504 30.5031 6.11586C29.7196 6.11667 28.95 6.32592 28.2715 6.72263C27.593 7.11935 27.0293 7.68961 26.6368 8.37632C26.2444 9.06303 26.037 9.8421 26.0355 10.6355C26.0564 11.0497 25.994 11.4639 25.8519 11.8529C25.7098 12.2419 25.491 12.5975 25.2089 12.8982C24.9268 13.1989 24.5873 13.4383 24.2109 13.6019C23.8346 13.7655 23.4293 13.8499 23.0197 13.8499C22.6102 13.8499 22.2049 13.7655 21.8285 13.6019C21.4522 13.4383 21.1126 13.1989 20.8305 12.8982C20.5484 12.5975 20.3296 12.2419 20.1876 11.8529C20.0455 11.4639 19.983 11.0497 20.004 10.6355C20.0013 8.76877 20.4846 6.93432 21.4052 5.317C22.3257 3.69967 23.651 2.35662 25.2474 1.42316C26.8438 0.489708 28.655 -0.00116667 30.4984 2.08218e-06C32.3418 0.00117083 34.1524 0.494342 35.7477 1.42982L81.7519 28.3214C83.355 29.2459 84.6861 30.5859 85.6084 32.2038C86.5307 33.8216 87.011 35.659 86.9998 37.5271V37.5271Z" fill="#FF4444"/>
</svg>
