<svg width="65" height="65" viewBox="0 0 65 65" fill="none" xmlns="http://www.w3.org/2000/svg">
<rect width="65" height="65" rx="5" fill="#F0F0F0"/>
<path d="M49 22.7623C48.9569 22.9263 48.9397 23.1075 48.8622 23.2542C48.6555 23.6771 48.5004 24.1518 48.199 24.4798C47.3807 25.3602 46.4849 26.1801 45.6408 27C43.4358 24.7905 41.205 22.5551 39 20.3457C39.8183 19.4999 40.6193 18.5936 41.5151 17.7823C42.7037 16.7207 44.6934 16.7466 45.882 17.8168C46.6916 18.5505 47.441 19.3445 48.199 20.1385C48.6641 20.6219 48.8536 21.2605 49 21.8992V22.7623Z" fill="#FF4444"/>
<path d="M37.0474 23C39.3769 25.2417 41.6795 27.4576 44 29.6908C43.9286 29.7595 43.8572 29.8454 43.7769 29.9227C37.9489 35.5312 32.1209 41.1398 26.2839 46.7483C26.0965 46.9201 25.8377 47.0661 25.5878 47.1262C23.0531 47.7532 20.5095 48.3545 17.9659 48.9643C17.2876 49.1275 16.8681 48.7152 17.0377 48.0624C17.6713 45.5888 18.3139 43.1066 18.9655 40.633C19.0101 40.4527 19.1172 40.2723 19.2511 40.1435C25.1237 34.4748 31.0142 28.8147 36.8957 23.1546C36.9493 23.1031 37.0028 23.0601 37.0653 23.0086L37.0474 23Z" fill="#EFA4A4"/>
</svg>
