<svg width="585" height="138" viewBox="0 0 585 138" fill="none" xmlns="http://www.w3.org/2000/svg">
<rect width="159" height="94" rx="12" fill="#FCAA2E"/>
<rect opacity="0.21" y="70" width="159" height="68" rx="12" fill="#FCAA2E"/>
<rect x="213" width="159" height="94" rx="12" fill="#F96E08"/>
<rect opacity="0.2" x="213" y="70" width="159" height="68" rx="12" fill="#F96E08"/>
<rect opacity="0.2" x="426" y="70" width="159" height="68" rx="12" fill="#FFFBF2"/>
<rect x="426" width="159" height="94" rx="12" fill="#FFFBF2"/>
<path d="M57.669 111.742H55.793L55.191 114.234H57.053V115.186H54.967L54.281 118H53.259L53.959 115.186H51.607L50.921 118H49.899L50.599 115.186H49.017V114.234H50.823L51.425 111.742H49.633V110.846H51.649L52.321 108.06H53.343L52.657 110.846H55.009L55.681 108.06H56.703L56.017 110.846H57.669V111.742ZM54.183 114.234L54.785 111.742H52.433L51.831 114.234H54.183ZM59.3824 118V108.06H65.9484V109.18H60.6424V112.498H65.1084V113.548H60.6424V118H59.3824ZM66.7228 112.96C66.7228 112.363 66.8254 111.77 67.0308 111.182C67.2454 110.585 67.5534 110.053 67.9548 109.586C68.3654 109.11 68.8648 108.727 69.4528 108.438C70.0408 108.149 70.7081 108.004 71.4548 108.004C72.3414 108.004 73.1021 108.205 73.7368 108.606C74.3714 109.007 74.8428 109.53 75.1508 110.174L74.1568 110.818C74.0074 110.501 73.8254 110.235 73.6108 110.02C73.4054 109.805 73.1768 109.633 72.9248 109.502C72.6821 109.371 72.4301 109.278 72.1688 109.222C71.9074 109.166 71.6508 109.138 71.3988 109.138C70.8481 109.138 70.3581 109.255 69.9288 109.488C69.5088 109.712 69.1541 110.011 68.8648 110.384C68.5754 110.748 68.3561 111.163 68.2068 111.63C68.0668 112.087 67.9968 112.549 67.9968 113.016C67.9968 113.539 68.0808 114.038 68.2488 114.514C68.4261 114.981 68.6688 115.396 68.9768 115.76C69.2848 116.124 69.6488 116.413 70.0688 116.628C70.4888 116.843 70.9461 116.95 71.4408 116.95C71.7021 116.95 71.9681 116.917 72.2388 116.852C72.5188 116.787 72.7848 116.684 73.0368 116.544C73.2888 116.395 73.5221 116.213 73.7368 115.998C73.9608 115.774 74.1428 115.508 74.2828 115.2L75.3328 115.774C75.1741 116.147 74.9501 116.479 74.6608 116.768C74.3808 117.048 74.0588 117.286 73.6948 117.482C73.3401 117.678 72.9621 117.827 72.5608 117.93C72.1594 118.033 71.7674 118.084 71.3848 118.084C70.7034 118.084 70.0781 117.935 69.5088 117.636C68.9394 117.337 68.4448 116.95 68.0248 116.474C67.6141 115.989 67.2921 115.443 67.0588 114.836C66.8348 114.22 66.7228 113.595 66.7228 112.96ZM79.797 108.06H80.861L84.921 118H83.577L82.401 115.088H78.229L77.067 118H75.723L79.797 108.06ZM82.121 114.108L80.329 109.516L78.481 114.108H82.121ZM89.2716 108.06H90.3356L94.3956 118H93.0516L91.8756 115.088H87.7036L86.5416 118H85.1976L89.2716 108.06ZM91.5956 114.108L89.8036 109.516L87.9556 114.108H91.5956ZM95.1342 118C95.1342 117.627 95.1622 117.277 95.2182 116.95C95.2836 116.623 95.4002 116.311 95.5682 116.012C95.7362 115.713 95.9649 115.429 96.2542 115.158C96.5529 114.887 96.9402 114.617 97.4162 114.346C97.6962 114.197 97.9809 114.052 98.2702 113.912C98.5596 113.763 98.8209 113.609 99.0542 113.45C99.2969 113.282 99.4929 113.105 99.6422 112.918C99.8009 112.731 99.8802 112.512 99.8802 112.26C99.8802 112.101 99.8429 111.943 99.7682 111.784C99.6936 111.625 99.5862 111.485 99.4462 111.364C99.3062 111.243 99.1289 111.145 98.9142 111.07C98.7089 110.995 98.4709 110.958 98.2002 110.958C97.9202 110.958 97.6636 111 97.4302 111.084C97.2062 111.159 97.0056 111.257 96.8282 111.378C96.6509 111.49 96.4969 111.611 96.3662 111.742C96.2356 111.873 96.1282 111.989 96.0442 112.092L95.2462 111.196C95.3209 111.112 95.4469 111 95.6242 110.86C95.8016 110.711 96.0256 110.561 96.2962 110.412C96.5669 110.263 96.8796 110.137 97.2342 110.034C97.5889 109.922 97.9856 109.866 98.4242 109.866C98.8536 109.866 99.2409 109.927 99.5862 110.048C99.9316 110.16 100.221 110.319 100.454 110.524C100.697 110.729 100.884 110.972 101.014 111.252C101.145 111.523 101.21 111.812 101.21 112.12C101.21 112.484 101.131 112.801 100.972 113.072C100.814 113.343 100.618 113.581 100.384 113.786C100.16 113.991 99.9176 114.169 99.6562 114.318C99.3949 114.458 99.1616 114.579 98.9562 114.682C98.7509 114.785 98.5176 114.911 98.2562 115.06C98.0042 115.2 97.7616 115.363 97.5282 115.55C97.2949 115.727 97.0896 115.928 96.9122 116.152C96.7442 116.376 96.6369 116.619 96.5902 116.88H101.364V118H95.1342ZM109.962 116.88V118H103.214V108.06H109.836V109.18H104.474V112.4H109.136V113.45H104.474V116.88H109.962Z" fill="black"/>
<path d="M271.222 111.742H269.346L268.744 114.234H270.606V115.186H268.52L267.834 118H266.812L267.512 115.186H265.16L264.474 118H263.452L264.152 115.186H262.57V114.234H264.376L264.978 111.742H263.186V110.846H265.202L265.874 108.06H266.896L266.21 110.846H268.562L269.234 108.06H270.256L269.57 110.846H271.222V111.742ZM267.736 114.234L268.338 111.742H265.986L265.384 114.234H267.736ZM272.935 118V108.06H279.501V109.18H274.195V112.498H278.661V113.548H274.195V118H272.935ZM280.275 113.436C280.275 112.96 280.363 112.517 280.541 112.106C280.727 111.686 280.979 111.322 281.297 111.014C281.623 110.697 282.001 110.449 282.431 110.272C282.86 110.095 283.327 110.006 283.831 110.006C284.363 110.006 284.848 110.104 285.287 110.3C285.735 110.496 286.117 110.781 286.435 111.154C286.752 111.518 286.995 111.966 287.163 112.498C287.34 113.021 287.429 113.618 287.429 114.29C287.429 115.27 287.34 116.129 287.163 116.866C286.985 117.594 286.733 118.201 286.407 118.686C286.08 119.181 285.688 119.549 285.231 119.792C284.773 120.035 284.265 120.156 283.705 120.156C283.061 120.156 282.473 120.002 281.941 119.694C281.418 119.386 281.007 118.952 280.709 118.392L281.465 117.65C281.67 118.089 281.973 118.434 282.375 118.686C282.776 118.947 283.224 119.078 283.719 119.078C284.484 119.078 285.095 118.737 285.553 118.056C286.01 117.375 286.248 116.418 286.267 115.186C286.061 115.671 285.73 116.059 285.273 116.348C284.815 116.637 284.293 116.782 283.705 116.782C283.229 116.782 282.781 116.698 282.361 116.53C281.941 116.353 281.577 116.115 281.269 115.816C280.961 115.517 280.718 115.163 280.541 114.752C280.363 114.341 280.275 113.903 280.275 113.436ZM283.817 111.07C283.49 111.07 283.182 111.135 282.893 111.266C282.613 111.387 282.365 111.555 282.151 111.77C281.936 111.985 281.763 112.237 281.633 112.526C281.511 112.806 281.451 113.109 281.451 113.436C281.451 113.763 281.511 114.071 281.633 114.36C281.763 114.64 281.936 114.887 282.151 115.102C282.365 115.307 282.613 115.475 282.893 115.606C283.182 115.727 283.49 115.788 283.817 115.788C284.143 115.788 284.447 115.727 284.727 115.606C285.016 115.475 285.268 115.307 285.483 115.102C285.697 114.887 285.865 114.64 285.987 114.36C286.117 114.071 286.183 113.763 286.183 113.436C286.183 113.119 286.117 112.815 285.987 112.526C285.865 112.237 285.697 111.985 285.483 111.77C285.268 111.555 285.016 111.387 284.727 111.266C284.437 111.135 284.134 111.07 283.817 111.07ZM295.883 114.71C295.883 115.186 295.789 115.634 295.603 116.054C295.425 116.465 295.173 116.829 294.847 117.146C294.529 117.454 294.156 117.697 293.727 117.874C293.297 118.051 292.831 118.14 292.327 118.14C291.795 118.14 291.305 118.042 290.857 117.846C290.418 117.65 290.04 117.37 289.723 117.006C289.405 116.633 289.158 116.185 288.981 115.662C288.813 115.13 288.729 114.528 288.729 113.856C288.729 112.876 288.817 112.022 288.995 111.294C289.172 110.557 289.424 109.945 289.751 109.46C290.077 108.965 290.469 108.597 290.927 108.354C291.384 108.111 291.893 107.99 292.453 107.99C293.097 107.99 293.68 108.144 294.203 108.452C294.735 108.76 295.15 109.194 295.449 109.754L294.693 110.496C294.487 110.057 294.184 109.712 293.783 109.46C293.381 109.199 292.933 109.068 292.439 109.068C292.056 109.068 291.711 109.157 291.403 109.334C291.095 109.502 290.829 109.754 290.605 110.09C290.381 110.426 290.208 110.837 290.087 111.322C289.965 111.798 289.9 112.344 289.891 112.96C290.096 112.475 290.427 112.087 290.885 111.798C291.342 111.509 291.865 111.364 292.453 111.364C292.929 111.364 293.377 111.453 293.797 111.63C294.217 111.798 294.581 112.036 294.889 112.344C295.197 112.643 295.439 112.997 295.617 113.408C295.794 113.809 295.883 114.243 295.883 114.71ZM292.341 117.076C292.658 117.076 292.961 117.015 293.251 116.894C293.54 116.763 293.792 116.591 294.007 116.376C294.221 116.161 294.389 115.914 294.511 115.634C294.641 115.345 294.707 115.037 294.707 114.71C294.707 114.393 294.641 114.089 294.511 113.8C294.389 113.511 294.221 113.263 294.007 113.058C293.792 112.843 293.54 112.675 293.251 112.554C292.961 112.423 292.658 112.358 292.341 112.358C292.014 112.358 291.706 112.423 291.417 112.554C291.137 112.675 290.889 112.843 290.675 113.058C290.46 113.263 290.287 113.511 290.157 113.8C290.035 114.089 289.975 114.393 289.975 114.71C289.975 115.037 290.035 115.345 290.157 115.634C290.287 115.914 290.46 116.161 290.675 116.376C290.889 116.591 291.137 116.763 291.417 116.894C291.706 117.015 292.014 117.076 292.341 117.076ZM304.443 116.88V118H297.695V108.06H304.317V109.18H298.955V112.4H303.617V113.45H298.955V116.88H304.443ZM312.821 113.898C312.821 114.514 312.733 115.083 312.555 115.606C312.378 116.119 312.131 116.567 311.813 116.95C311.496 117.323 311.118 117.617 310.679 117.832C310.25 118.037 309.783 118.14 309.279 118.14C308.766 118.14 308.29 118.037 307.851 117.832C307.422 117.617 307.049 117.323 306.731 116.95C306.423 116.567 306.181 116.119 306.003 115.606C305.826 115.083 305.737 114.514 305.737 113.898C305.737 113.282 305.826 112.717 306.003 112.204C306.181 111.681 306.423 111.233 306.731 110.86C307.049 110.477 307.422 110.179 307.851 109.964C308.29 109.749 308.766 109.642 309.279 109.642C309.783 109.642 310.25 109.749 310.679 109.964C311.118 110.179 311.496 110.477 311.813 110.86C312.131 111.233 312.378 111.681 312.555 112.204C312.733 112.717 312.821 113.282 312.821 113.898ZM311.575 113.898C311.575 113.441 311.519 113.021 311.407 112.638C311.295 112.255 311.137 111.929 310.931 111.658C310.726 111.378 310.483 111.163 310.203 111.014C309.923 110.865 309.615 110.79 309.279 110.79C308.934 110.79 308.617 110.865 308.327 111.014C308.047 111.163 307.805 111.378 307.599 111.658C307.403 111.929 307.249 112.255 307.137 112.638C307.025 113.021 306.969 113.441 306.969 113.898C306.969 114.365 307.025 114.789 307.137 115.172C307.249 115.545 307.403 115.867 307.599 116.138C307.805 116.409 308.047 116.619 308.327 116.768C308.617 116.917 308.934 116.992 309.279 116.992C309.615 116.992 309.923 116.917 310.203 116.768C310.483 116.619 310.726 116.409 310.931 116.138C311.137 115.867 311.295 115.545 311.407 115.172C311.519 114.789 311.575 114.365 311.575 113.898ZM321.267 115.186C321.267 115.634 321.169 116.04 320.973 116.404C320.786 116.759 320.53 117.062 320.203 117.314C319.886 117.566 319.512 117.762 319.083 117.902C318.663 118.042 318.215 118.112 317.739 118.112C317.244 118.112 316.782 118.037 316.353 117.888C315.933 117.729 315.569 117.519 315.261 117.258C314.953 116.987 314.71 116.67 314.533 116.306C314.356 115.942 314.267 115.55 314.267 115.13C314.267 114.822 314.323 114.537 314.435 114.276C314.547 114.015 314.687 113.781 314.855 113.576C315.032 113.371 315.233 113.193 315.457 113.044C315.681 112.885 315.905 112.764 316.129 112.68C315.924 112.596 315.728 112.489 315.541 112.358C315.354 112.218 315.191 112.064 315.051 111.896C314.911 111.719 314.799 111.527 314.715 111.322C314.64 111.117 314.603 110.897 314.603 110.664C314.603 110.244 314.696 109.875 314.883 109.558C315.079 109.231 315.326 108.956 315.625 108.732C315.933 108.508 316.274 108.34 316.647 108.228C317.02 108.116 317.394 108.06 317.767 108.06C318.14 108.06 318.514 108.116 318.887 108.228C319.27 108.34 319.61 108.508 319.909 108.732C320.217 108.947 320.464 109.217 320.651 109.544C320.847 109.861 320.945 110.23 320.945 110.65C320.945 111.117 320.791 111.527 320.483 111.882C320.175 112.237 319.811 112.503 319.391 112.68C319.643 112.783 319.881 112.913 320.105 113.072C320.338 113.231 320.539 113.417 320.707 113.632C320.875 113.837 321.01 114.071 321.113 114.332C321.216 114.593 321.267 114.878 321.267 115.186ZM320.021 115.102C320.021 114.803 319.951 114.537 319.811 114.304C319.68 114.061 319.508 113.861 319.293 113.702C319.078 113.534 318.836 113.408 318.565 113.324C318.294 113.24 318.024 113.198 317.753 113.198C317.473 113.198 317.198 113.245 316.927 113.338C316.666 113.422 316.428 113.548 316.213 113.716C316.008 113.884 315.84 114.089 315.709 114.332C315.588 114.565 315.527 114.827 315.527 115.116C315.527 115.415 315.592 115.681 315.723 115.914C315.863 116.147 316.04 116.343 316.255 116.502C316.47 116.661 316.708 116.787 316.969 116.88C317.24 116.964 317.51 117.006 317.781 117.006C318.061 117.006 318.332 116.959 318.593 116.866C318.864 116.773 319.102 116.642 319.307 116.474C319.522 116.306 319.694 116.105 319.825 115.872C319.956 115.639 320.021 115.382 320.021 115.102ZM315.849 110.706C315.849 110.958 315.905 111.182 316.017 111.378C316.138 111.565 316.292 111.723 316.479 111.854C316.666 111.985 316.871 112.083 317.095 112.148C317.319 112.213 317.543 112.246 317.767 112.246C317.991 112.246 318.215 112.213 318.439 112.148C318.663 112.073 318.868 111.971 319.055 111.84C319.242 111.709 319.391 111.546 319.503 111.35C319.624 111.154 319.685 110.93 319.685 110.678C319.685 110.445 319.629 110.235 319.517 110.048C319.414 109.861 319.274 109.703 319.097 109.572C318.92 109.441 318.714 109.343 318.481 109.278C318.248 109.203 318.005 109.166 317.753 109.166C317.501 109.166 317.258 109.203 317.025 109.278C316.801 109.343 316.6 109.446 316.423 109.586C316.255 109.717 316.115 109.88 316.003 110.076C315.9 110.263 315.849 110.473 315.849 110.706Z" fill="black"/>
<path d="M486.207 111.742H484.331L483.729 114.234H485.591V115.186H483.505L482.819 118H481.797L482.497 115.186H480.145L479.459 118H478.437L479.137 115.186H477.555V114.234H479.361L479.963 111.742H478.171V110.846H480.187L480.859 108.06H481.881L481.195 110.846H483.547L484.219 108.06H485.241L484.555 110.846H486.207V111.742ZM482.721 114.234L483.323 111.742H480.971L480.369 114.234H482.721ZM487.92 118V108.06H494.486V109.18H489.18V112.498H493.646V113.548H489.18V118H487.92ZM496.083 118V108.06H502.649V109.18H497.343V112.498H501.809V113.548H497.343V118H496.083ZM504.245 118V108.06H510.811V109.18H505.505V112.498H509.971V113.548H505.505V118H504.245ZM520.037 115.438C520.037 115.821 519.957 116.171 519.799 116.488C519.649 116.805 519.439 117.076 519.169 117.3C518.907 117.524 518.599 117.697 518.245 117.818C517.899 117.939 517.526 118 517.125 118H512.407V108.06H517.349C517.694 108.06 518.007 108.135 518.287 108.284C518.567 108.433 518.805 108.629 519.001 108.872C519.197 109.105 519.346 109.376 519.449 109.684C519.561 109.983 519.617 110.286 519.617 110.594C519.617 111.089 519.491 111.546 519.239 111.966C518.996 112.386 518.646 112.699 518.189 112.904C518.758 113.072 519.206 113.385 519.533 113.842C519.869 114.29 520.037 114.822 520.037 115.438ZM518.763 115.214C518.763 114.99 518.721 114.775 518.637 114.57C518.562 114.355 518.455 114.169 518.315 114.01C518.184 113.851 518.025 113.725 517.839 113.632C517.652 113.539 517.447 113.492 517.223 113.492H513.667V116.908H517.125C517.358 116.908 517.573 116.861 517.769 116.768C517.965 116.675 518.137 116.553 518.287 116.404C518.436 116.245 518.553 116.063 518.637 115.858C518.721 115.653 518.763 115.438 518.763 115.214ZM513.667 109.152V112.47H516.831C517.055 112.47 517.26 112.428 517.447 112.344C517.633 112.251 517.792 112.129 517.923 111.98C518.063 111.831 518.17 111.658 518.245 111.462C518.329 111.257 518.371 111.042 518.371 110.818C518.371 110.585 518.333 110.365 518.259 110.16C518.184 109.955 518.081 109.777 517.951 109.628C517.829 109.479 517.675 109.362 517.489 109.278C517.311 109.194 517.12 109.152 516.915 109.152H513.667ZM521.799 118V108.06H528.365V109.18H523.059V112.498H527.525V113.548H523.059V118H521.799ZM529.073 118C529.073 117.627 529.101 117.277 529.157 116.95C529.222 116.623 529.339 116.311 529.507 116.012C529.675 115.713 529.903 115.429 530.193 115.158C530.491 114.887 530.879 114.617 531.355 114.346C531.635 114.197 531.919 114.052 532.209 113.912C532.498 113.763 532.759 113.609 532.993 113.45C533.235 113.282 533.431 113.105 533.581 112.918C533.739 112.731 533.819 112.512 533.819 112.26C533.819 112.101 533.781 111.943 533.707 111.784C533.632 111.625 533.525 111.485 533.385 111.364C533.245 111.243 533.067 111.145 532.853 111.07C532.647 110.995 532.409 110.958 532.139 110.958C531.859 110.958 531.602 111 531.369 111.084C531.145 111.159 530.944 111.257 530.767 111.378C530.589 111.49 530.435 111.611 530.305 111.742C530.174 111.873 530.067 111.989 529.983 112.092L529.185 111.196C529.259 111.112 529.385 111 529.563 110.86C529.74 110.711 529.964 110.561 530.235 110.412C530.505 110.263 530.818 110.137 531.173 110.034C531.527 109.922 531.924 109.866 532.363 109.866C532.792 109.866 533.179 109.927 533.525 110.048C533.87 110.16 534.159 110.319 534.393 110.524C534.635 110.729 534.822 110.972 534.953 111.252C535.083 111.523 535.149 111.812 535.149 112.12C535.149 112.484 535.069 112.801 534.911 113.072C534.752 113.343 534.556 113.581 534.323 113.786C534.099 113.991 533.856 114.169 533.595 114.318C533.333 114.458 533.1 114.579 532.895 114.682C532.689 114.785 532.456 114.911 532.195 115.06C531.943 115.2 531.7 115.363 531.467 115.55C531.233 115.727 531.028 115.928 530.851 116.152C530.683 116.376 530.575 116.619 530.529 116.88H535.303V118H529.073Z" fill="black"/>
</svg>
