<svg width="586" height="239" viewBox="0 0 586 239" fill="none" xmlns="http://www.w3.org/2000/svg">
<path d="M52.0292 38.72H61.9412L111.501 158H99.0692L83.6132 120.704H30.0212L14.7332 158H2.13319L52.0292 38.72ZM80.9252 111.464L56.9012 52.496L32.5412 111.464H80.9252ZM146.944 159.68C142.8 159.68 138.936 159.008 135.352 157.664C131.88 156.208 128.8 154.248 126.112 151.784C123.536 149.32 121.52 146.464 120.064 143.216C118.608 139.856 117.88 136.272 117.88 132.464C117.88 128.656 118.776 125.128 120.568 121.88C122.36 118.632 124.88 115.832 128.128 113.48C131.376 111.128 135.24 109.336 139.72 108.104C144.2 106.76 149.128 106.088 154.504 106.088C158.984 106.088 163.52 106.48 168.112 107.264C172.704 108.048 176.792 109.168 180.376 110.624V102.728C180.376 95 178.192 88.896 173.824 84.416C169.456 79.824 163.408 77.528 155.68 77.528C151.2 77.528 146.608 78.424 141.904 80.216C137.2 82.008 132.44 84.584 127.624 87.944L123.592 80.384C134.904 72.768 145.88 68.96 156.52 68.96C167.496 68.96 176.12 72.04 182.392 78.2C188.664 84.36 191.8 92.872 191.8 103.736V143.216C191.8 146.352 193.2 147.92 196 147.92V158C194.096 158.336 192.64 158.504 191.632 158.504C188.72 158.504 186.424 157.776 184.744 156.32C183.176 154.864 182.336 152.848 182.224 150.272L181.888 143.384C177.856 148.648 172.76 152.68 166.6 155.48C160.552 158.28 154 159.68 146.944 159.68ZM149.632 150.944C155.568 150.944 161 149.824 165.928 147.584C170.968 145.344 174.776 142.376 177.352 138.68C178.36 137.672 179.088 136.608 179.536 135.488C180.096 134.256 180.376 133.136 180.376 132.128V117.848C176.568 116.392 172.592 115.272 168.448 114.488C164.416 113.704 160.272 113.312 156.016 113.312C147.952 113.312 141.4 114.992 136.36 118.352C131.32 121.712 128.8 126.136 128.8 131.624C128.8 134.312 129.304 136.832 130.312 139.184C131.432 141.536 132.888 143.608 134.68 145.4C136.584 147.08 138.824 148.424 141.4 149.432C143.976 150.44 146.72 150.944 149.632 150.944Z" fill="black"/>
<path d="M242.254 55V32.28H251.854C252.836 32.28 253.732 32.4933 254.542 32.92C255.374 33.3253 256.089 33.8693 256.686 34.552C257.284 35.2133 257.742 35.9707 258.062 36.824C258.404 37.6773 258.574 38.5413 258.574 39.416C258.574 40.248 258.446 41.048 258.19 41.816C257.956 42.5627 257.614 43.2453 257.166 43.864C256.74 44.4613 256.217 44.9733 255.598 45.4C254.98 45.8053 254.286 46.0827 253.518 46.232L259.086 55H256.558L251.214 46.616H244.494V55H242.254ZM244.494 44.632H251.918C252.58 44.632 253.177 44.4933 253.71 44.216C254.265 43.9173 254.734 43.5227 255.118 43.032C255.502 42.5413 255.801 41.9867 256.014 41.368C256.228 40.7493 256.334 40.0987 256.334 39.416C256.334 38.7333 256.206 38.0827 255.95 37.464C255.716 36.824 255.385 36.2693 254.958 35.8C254.553 35.3307 254.062 34.9573 253.486 34.68C252.932 34.4027 252.345 34.264 251.726 34.264H244.494V44.632ZM266.686 55.32C265.896 55.32 265.16 55.192 264.478 54.936C263.816 54.6587 263.23 54.2853 262.718 53.816C262.227 53.3467 261.843 52.8027 261.566 52.184C261.288 51.544 261.15 50.8613 261.15 50.136C261.15 49.4107 261.32 48.7387 261.662 48.12C262.003 47.5013 262.483 46.968 263.102 46.52C263.72 46.072 264.456 45.7307 265.31 45.496C266.163 45.24 267.102 45.112 268.126 45.112C268.979 45.112 269.843 45.1867 270.718 45.336C271.592 45.4853 272.371 45.6987 273.054 45.976V44.472C273.054 43 272.638 41.8373 271.806 40.984C270.974 40.1093 269.822 39.672 268.35 39.672C267.496 39.672 266.622 39.8427 265.726 40.184C264.83 40.5253 263.923 41.016 263.006 41.656L262.238 40.216C264.392 38.7653 266.483 38.04 268.51 38.04C270.6 38.04 272.243 38.6267 273.438 39.8C274.632 40.9733 275.23 42.5947 275.23 44.664V52.184C275.23 52.7813 275.496 53.08 276.03 53.08V55C275.667 55.064 275.39 55.096 275.198 55.096C274.643 55.096 274.206 54.9573 273.886 54.68C273.587 54.4027 273.427 54.0187 273.406 53.528L273.342 52.216C272.574 53.2187 271.603 53.9867 270.43 54.52C269.278 55.0533 268.03 55.32 266.686 55.32ZM267.198 53.656C268.328 53.656 269.363 53.4427 270.302 53.016C271.262 52.5893 271.987 52.024 272.478 51.32C272.67 51.128 272.808 50.9253 272.894 50.712C273 50.4773 273.054 50.264 273.054 50.072V47.352C272.328 47.0747 271.571 46.8613 270.782 46.712C270.014 46.5627 269.224 46.488 268.414 46.488C266.878 46.488 265.63 46.808 264.67 47.448C263.71 48.088 263.23 48.9307 263.23 49.976C263.23 50.488 263.326 50.968 263.518 51.416C263.731 51.864 264.008 52.2587 264.35 52.6C264.712 52.92 265.139 53.176 265.63 53.368C266.12 53.56 266.643 53.656 267.198 53.656ZM280.027 31.64H282.203V51.224C282.203 51.8427 282.374 52.3333 282.715 52.696C283.057 53.0373 283.537 53.208 284.155 53.208C284.39 53.208 284.667 53.176 284.987 53.112C285.307 53.048 285.606 52.9627 285.883 52.856L286.267 54.616C285.862 54.7867 285.361 54.9253 284.763 55.032C284.187 55.1387 283.686 55.192 283.259 55.192C282.257 55.192 281.467 54.9147 280.891 54.36C280.315 53.784 280.027 52.984 280.027 51.96V31.64ZM295.85 55.32C294.634 55.32 293.514 55.096 292.49 54.648C291.487 54.1787 290.613 53.5493 289.866 52.76C289.119 51.9493 288.533 51.0213 288.106 49.976C287.701 48.9307 287.498 47.8107 287.498 46.616C287.498 45.4427 287.701 44.344 288.106 43.32C288.533 42.2747 289.109 41.368 289.834 40.6C290.581 39.8107 291.466 39.192 292.49 38.744C293.514 38.2747 294.623 38.04 295.818 38.04C297.034 38.04 298.143 38.2747 299.146 38.744C300.17 39.192 301.045 39.8107 301.77 40.6C302.495 41.3893 303.061 42.296 303.466 43.32C303.871 44.344 304.074 45.432 304.074 46.584C304.074 46.7547 304.074 46.9253 304.074 47.096C304.074 47.2667 304.063 47.384 304.042 47.448H289.77C289.834 48.344 290.037 49.176 290.378 49.944C290.741 50.6907 291.199 51.3413 291.754 51.896C292.309 52.4507 292.938 52.888 293.642 53.208C294.367 53.5067 295.135 53.656 295.946 53.656C296.479 53.656 297.013 53.5813 297.546 53.432C298.079 53.2827 298.57 53.08 299.018 52.824C299.466 52.568 299.871 52.2587 300.234 51.896C300.597 51.512 300.874 51.096 301.066 50.648L302.954 51.16C302.698 51.7787 302.335 52.344 301.866 52.856C301.397 53.3467 300.853 53.784 300.234 54.168C299.615 54.5307 298.933 54.808 298.186 55C297.439 55.2133 296.661 55.32 295.85 55.32ZM301.994 45.784C301.93 44.888 301.717 44.0773 301.354 43.352C301.013 42.6053 300.565 41.9653 300.01 41.432C299.477 40.8987 298.847 40.4827 298.122 40.184C297.418 39.8853 296.661 39.736 295.85 39.736C295.039 39.736 294.271 39.8853 293.546 40.184C292.821 40.4827 292.181 40.8987 291.626 41.432C291.093 41.9653 290.655 42.6053 290.314 43.352C289.994 44.0987 289.802 44.9093 289.738 45.784H301.994ZM327.986 38.328H330.13L322.962 55H321.17L317.586 46.488L314.034 55H312.242L305.074 38.328H307.186L313.266 52.76L316.434 45.144L313.586 38.36H315.41L317.586 43.8L319.762 38.36H321.618L318.77 45.144L321.938 52.76L327.986 38.328ZM336.811 55.32C336.021 55.32 335.285 55.192 334.603 54.936C333.941 54.6587 333.355 54.2853 332.843 53.816C332.352 53.3467 331.968 52.8027 331.691 52.184C331.413 51.544 331.275 50.8613 331.275 50.136C331.275 49.4107 331.445 48.7387 331.787 48.12C332.128 47.5013 332.608 46.968 333.227 46.52C333.845 46.072 334.581 45.7307 335.435 45.496C336.288 45.24 337.227 45.112 338.251 45.112C339.104 45.112 339.968 45.1867 340.843 45.336C341.717 45.4853 342.496 45.6987 343.179 45.976V44.472C343.179 43 342.763 41.8373 341.931 40.984C341.099 40.1093 339.947 39.672 338.475 39.672C337.621 39.672 336.747 39.8427 335.851 40.184C334.955 40.5253 334.048 41.016 333.131 41.656L332.363 40.216C334.517 38.7653 336.608 38.04 338.635 38.04C340.725 38.04 342.368 38.6267 343.563 39.8C344.757 40.9733 345.355 42.5947 345.355 44.664V52.184C345.355 52.7813 345.621 53.08 346.155 53.08V55C345.792 55.064 345.515 55.096 345.323 55.096C344.768 55.096 344.331 54.9573 344.011 54.68C343.712 54.4027 343.552 54.0187 343.531 53.528L343.467 52.216C342.699 53.2187 341.728 53.9867 340.555 54.52C339.403 55.0533 338.155 55.32 336.811 55.32ZM337.323 53.656C338.453 53.656 339.488 53.4427 340.427 53.016C341.387 52.5893 342.112 52.024 342.603 51.32C342.795 51.128 342.933 50.9253 343.019 50.712C343.125 50.4773 343.179 50.264 343.179 50.072V47.352C342.453 47.0747 341.696 46.8613 340.907 46.712C340.139 46.5627 339.349 46.488 338.539 46.488C337.003 46.488 335.755 46.808 334.795 47.448C333.835 48.088 333.355 48.9307 333.355 49.976C333.355 50.488 333.451 50.968 333.643 51.416C333.856 51.864 334.133 52.2587 334.475 52.6C334.837 52.92 335.264 53.176 335.755 53.368C336.245 53.56 336.768 53.656 337.323 53.656ZM350.61 60.12C350.781 60.1413 350.941 60.152 351.09 60.152C351.261 60.1733 351.421 60.184 351.57 60.184C351.954 60.184 352.253 60.1307 352.466 60.024C352.701 59.9173 352.925 59.6827 353.138 59.32C353.351 58.9573 353.586 58.4347 353.842 57.752C354.119 57.0693 354.503 56.152 354.994 55L347.73 38.328H349.97L356.146 52.984L361.874 38.328H363.954L355.314 59.832C355.079 60.4507 354.685 60.984 354.13 61.432C353.597 61.9013 352.861 62.136 351.922 62.136C351.709 62.136 351.506 62.1253 351.314 62.104C351.122 62.104 350.887 62.0827 350.61 62.04V60.12Z" fill="black"/>
<path d="M246.416 79.96H247.832L254.912 97H253.136L250.928 91.672H243.272L241.088 97H239.288L246.416 79.96ZM250.544 90.352L247.112 81.928L243.632 90.352H250.544ZM259.975 97.24C259.383 97.24 258.831 97.144 258.319 96.952C257.823 96.744 257.383 96.464 256.999 96.112C256.631 95.76 256.343 95.352 256.135 94.888C255.927 94.408 255.823 93.896 255.823 93.352C255.823 92.808 255.951 92.304 256.207 91.84C256.463 91.376 256.823 90.976 257.287 90.64C257.751 90.304 258.303 90.048 258.943 89.872C259.583 89.68 260.287 89.584 261.055 89.584C261.695 89.584 262.343 89.64 262.999 89.752C263.655 89.864 264.239 90.024 264.751 90.232V89.104C264.751 88 264.439 87.128 263.815 86.488C263.191 85.832 262.327 85.504 261.223 85.504C260.583 85.504 259.927 85.632 259.255 85.888C258.583 86.144 257.903 86.512 257.215 86.992L256.639 85.912C258.255 84.824 259.823 84.28 261.343 84.28C262.911 84.28 264.143 84.72 265.039 85.6C265.935 86.48 266.383 87.696 266.383 89.248V94.888C266.383 95.336 266.583 95.56 266.983 95.56V97C266.711 97.048 266.503 97.072 266.359 97.072C265.943 97.072 265.615 96.968 265.375 96.76C265.151 96.552 265.031 96.264 265.015 95.896L264.967 94.912C264.391 95.664 263.663 96.24 262.783 96.64C261.919 97.04 260.983 97.24 259.975 97.24ZM260.359 95.992C261.207 95.992 261.983 95.832 262.687 95.512C263.407 95.192 263.951 94.768 264.319 94.24C264.463 94.096 264.567 93.944 264.631 93.784C264.711 93.608 264.751 93.448 264.751 93.304V91.264C264.207 91.056 263.639 90.896 263.047 90.784C262.471 90.672 261.879 90.616 261.271 90.616C260.119 90.616 259.183 90.856 258.463 91.336C257.743 91.816 257.383 92.448 257.383 93.232C257.383 93.616 257.455 93.976 257.599 94.312C257.759 94.648 257.967 94.944 258.223 95.2C258.495 95.44 258.815 95.632 259.183 95.776C259.551 95.92 259.943 95.992 260.359 95.992ZM289.179 92.608C289.179 93.248 289.051 93.84 288.795 94.384C288.539 94.912 288.195 95.376 287.763 95.776C287.331 96.16 286.827 96.464 286.251 96.688C285.675 96.896 285.059 97 284.403 97H276.363V79.96H284.571C285.163 79.96 285.699 80.088 286.179 80.344C286.659 80.6 287.067 80.936 287.403 81.352C287.739 81.752 287.995 82.216 288.171 82.744C288.363 83.256 288.459 83.776 288.459 84.304C288.459 85.168 288.243 85.96 287.811 86.68C287.379 87.384 286.779 87.912 286.011 88.264C286.987 88.552 287.755 89.088 288.315 89.872C288.891 90.656 289.179 91.568 289.179 92.608ZM287.499 92.32C287.499 91.904 287.427 91.504 287.283 91.12C287.139 90.72 286.931 90.376 286.659 90.088C286.403 89.784 286.091 89.544 285.723 89.368C285.371 89.176 284.987 89.08 284.571 89.08H278.043V95.536H284.403C284.835 95.536 285.235 95.448 285.603 95.272C285.987 95.096 286.315 94.864 286.587 94.576C286.875 94.272 287.099 93.928 287.259 93.544C287.419 93.144 287.499 92.736 287.499 92.32ZM278.043 81.424V87.712H283.899C284.315 87.712 284.699 87.624 285.051 87.448C285.419 87.272 285.731 87.04 285.987 86.752C286.243 86.464 286.443 86.136 286.587 85.768C286.731 85.384 286.803 84.984 286.803 84.568C286.803 84.136 286.731 83.728 286.587 83.344C286.459 82.96 286.267 82.632 286.011 82.36C285.771 82.072 285.483 81.848 285.147 81.688C284.811 81.512 284.443 81.424 284.043 81.424H278.043ZM298.131 97.24C297.139 97.24 296.227 96.992 295.395 96.496C294.579 96 293.939 95.36 293.475 94.576V97H292.011V79.48H293.643V87.112C294.203 86.264 294.875 85.584 295.659 85.072C296.443 84.544 297.355 84.28 298.395 84.28C299.275 84.28 300.059 84.464 300.747 84.832C301.451 85.2 302.043 85.696 302.523 86.32C303.019 86.928 303.395 87.624 303.651 88.408C303.923 89.176 304.059 89.968 304.059 90.784C304.059 91.664 303.907 92.496 303.603 93.28C303.299 94.064 302.883 94.752 302.355 95.344C301.827 95.92 301.195 96.384 300.459 96.736C299.739 97.072 298.963 97.24 298.131 97.24ZM297.747 95.8C298.435 95.8 299.059 95.664 299.619 95.392C300.195 95.104 300.683 94.728 301.083 94.264C301.499 93.784 301.819 93.248 302.043 92.656C302.283 92.048 302.403 91.424 302.403 90.784C302.403 90.128 302.291 89.496 302.067 88.888C301.859 88.28 301.555 87.744 301.155 87.28C300.771 86.8 300.299 86.424 299.739 86.152C299.195 85.864 298.595 85.72 297.939 85.72C297.443 85.72 296.979 85.808 296.547 85.984C296.115 86.144 295.715 86.368 295.347 86.656C294.979 86.944 294.651 87.28 294.363 87.664C294.075 88.032 293.835 88.424 293.643 88.84V92.728C293.707 93.16 293.875 93.568 294.147 93.952C294.435 94.32 294.771 94.64 295.155 94.912C295.555 95.184 295.979 95.4 296.427 95.56C296.891 95.72 297.331 95.8 297.747 95.8ZM312.149 88.36C312.149 87.336 312.325 86.32 312.677 85.312C313.045 84.288 313.573 83.376 314.261 82.576C314.949 81.776 315.797 81.128 316.805 80.632C317.813 80.12 318.957 79.864 320.237 79.864C321.757 79.864 323.053 80.208 324.125 80.896C325.213 81.584 326.013 82.48 326.525 83.584L325.205 84.4C324.933 83.84 324.597 83.368 324.197 82.984C323.813 82.6 323.397 82.288 322.949 82.048C322.501 81.808 322.037 81.64 321.557 81.544C321.077 81.432 320.605 81.376 320.141 81.376C319.117 81.376 318.213 81.584 317.429 82C316.645 82.416 315.981 82.96 315.437 83.632C314.909 84.304 314.509 85.064 314.237 85.912C313.965 86.744 313.829 87.592 313.829 88.456C313.829 89.4 313.989 90.304 314.309 91.168C314.645 92.032 315.093 92.8 315.653 93.472C316.229 94.128 316.901 94.656 317.669 95.056C318.453 95.44 319.301 95.632 320.213 95.632C320.693 95.632 321.181 95.576 321.677 95.464C322.189 95.336 322.677 95.144 323.141 94.888C323.621 94.616 324.061 94.288 324.461 93.904C324.861 93.504 325.197 93.024 325.469 92.464L326.861 93.184C326.589 93.824 326.205 94.392 325.709 94.888C325.213 95.368 324.661 95.776 324.053 96.112C323.445 96.448 322.797 96.704 322.109 96.88C321.437 97.056 320.773 97.144 320.117 97.144C318.949 97.144 317.877 96.888 316.901 96.376C315.925 95.864 315.085 95.2 314.381 94.384C313.677 93.552 313.125 92.616 312.725 91.576C312.341 90.52 312.149 89.448 312.149 88.36ZM328.53 90.712C328.53 89.832 328.682 89 328.986 88.216C329.29 87.432 329.714 86.752 330.258 86.176C330.818 85.584 331.482 85.12 332.25 84.784C333.018 84.448 333.866 84.28 334.794 84.28C335.978 84.28 337.01 84.552 337.89 85.096C338.77 85.624 339.434 86.344 339.882 87.256L338.298 87.76C337.946 87.12 337.45 86.624 336.81 86.272C336.186 85.904 335.49 85.72 334.722 85.72C334.082 85.72 333.482 85.848 332.922 86.104C332.378 86.36 331.898 86.712 331.482 87.16C331.082 87.592 330.762 88.112 330.522 88.72C330.298 89.328 330.186 89.992 330.186 90.712C330.186 91.416 330.306 92.08 330.546 92.704C330.786 93.328 331.114 93.872 331.53 94.336C331.946 94.784 332.426 95.144 332.97 95.416C333.53 95.672 334.122 95.8 334.746 95.8C335.146 95.8 335.538 95.744 335.922 95.632C336.322 95.52 336.69 95.368 337.026 95.176C337.362 94.968 337.65 94.736 337.89 94.48C338.13 94.224 338.298 93.952 338.394 93.664L340.002 94.144C339.826 94.592 339.57 95.008 339.234 95.392C338.898 95.76 338.498 96.088 338.034 96.376C337.586 96.648 337.082 96.856 336.522 97C335.978 97.16 335.41 97.24 334.818 97.24C333.906 97.24 333.066 97.072 332.298 96.736C331.53 96.384 330.866 95.912 330.306 95.32C329.746 94.712 329.306 94.016 328.986 93.232C328.682 92.448 328.53 91.608 328.53 90.712ZM349.019 97V79.96H354.803C356.163 79.96 357.347 80.184 358.355 80.632C359.379 81.08 360.227 81.688 360.899 82.456C361.587 83.224 362.099 84.128 362.435 85.168C362.787 86.192 362.963 87.288 362.963 88.456C362.963 89.752 362.771 90.928 362.387 91.984C362.003 93.024 361.451 93.92 360.731 94.672C360.027 95.408 359.171 95.984 358.163 96.4C357.171 96.8 356.051 97 354.803 97H349.019ZM361.283 88.456C361.283 87.432 361.139 86.496 360.851 85.648C360.563 84.784 360.139 84.04 359.579 83.416C359.035 82.792 358.363 82.312 357.563 81.976C356.763 81.624 355.843 81.448 354.803 81.448H350.699V95.512H354.803C355.859 95.512 356.787 95.336 357.587 94.984C358.403 94.616 359.083 94.12 359.627 93.496C360.171 92.856 360.579 92.112 360.851 91.264C361.139 90.4 361.283 89.464 361.283 88.456ZM370.975 97.24C370.111 97.24 369.311 97.064 368.575 96.712C367.839 96.344 367.207 95.864 366.679 95.272C366.151 94.68 365.735 94 365.431 93.232C365.143 92.448 364.999 91.632 364.999 90.784C364.999 89.904 365.143 89.072 365.431 88.288C365.719 87.488 366.111 86.792 366.607 86.2C367.119 85.608 367.719 85.144 368.407 84.808C369.111 84.456 369.879 84.28 370.711 84.28C371.767 84.28 372.703 84.56 373.519 85.12C374.335 85.664 374.975 86.328 375.439 87.112V79.48H377.071V94.888C377.071 95.336 377.263 95.56 377.647 95.56V97C377.407 97.048 377.215 97.072 377.071 97.072C376.687 97.072 376.351 96.952 376.063 96.712C375.775 96.456 375.631 96.152 375.631 95.8V94.576C375.135 95.392 374.463 96.04 373.615 96.52C372.767 97 371.887 97.24 370.975 97.24ZM371.335 95.8C371.735 95.8 372.159 95.72 372.607 95.56C373.071 95.4 373.503 95.184 373.903 94.912C374.303 94.624 374.639 94.296 374.911 93.928C375.199 93.544 375.375 93.136 375.439 92.704V88.84C375.279 88.408 375.047 88.008 374.743 87.64C374.439 87.256 374.087 86.92 373.687 86.632C373.303 86.344 372.887 86.12 372.439 85.96C371.991 85.8 371.551 85.72 371.119 85.72C370.447 85.72 369.839 85.864 369.295 86.152C368.751 86.44 368.279 86.824 367.879 87.304C367.495 87.768 367.199 88.304 366.991 88.912C366.783 89.52 366.679 90.144 366.679 90.784C366.679 91.456 366.799 92.096 367.039 92.704C367.279 93.312 367.607 93.848 368.023 94.312C368.439 94.76 368.927 95.12 369.487 95.392C370.063 95.664 370.679 95.8 371.335 95.8ZM398.67 95.512V97H387.222V79.96H398.454V81.448H388.902V87.592H397.23V89.008H388.902V95.512H398.67ZM406.348 97.24C405.436 97.24 404.596 97.072 403.828 96.736C403.076 96.384 402.42 95.912 401.86 95.32C401.3 94.712 400.86 94.016 400.54 93.232C400.236 92.448 400.084 91.608 400.084 90.712C400.084 89.832 400.236 89.008 400.54 88.24C400.86 87.456 401.292 86.776 401.836 86.2C402.396 85.608 403.06 85.144 403.828 84.808C404.596 84.456 405.428 84.28 406.324 84.28C407.236 84.28 408.068 84.456 408.82 84.808C409.588 85.144 410.244 85.608 410.788 86.2C411.332 86.792 411.756 87.472 412.06 88.24C412.364 89.008 412.516 89.824 412.516 90.688C412.516 90.816 412.516 90.944 412.516 91.072C412.516 91.2 412.508 91.288 412.492 91.336H401.788C401.836 92.008 401.988 92.632 402.244 93.208C402.516 93.768 402.86 94.256 403.276 94.672C403.692 95.088 404.164 95.416 404.692 95.656C405.236 95.88 405.812 95.992 406.42 95.992C406.82 95.992 407.22 95.936 407.62 95.824C408.02 95.712 408.388 95.56 408.724 95.368C409.06 95.176 409.364 94.944 409.636 94.672C409.908 94.384 410.116 94.072 410.26 93.736L411.676 94.12C411.484 94.584 411.212 95.008 410.86 95.392C410.508 95.76 410.1 96.088 409.636 96.376C409.172 96.648 408.66 96.856 408.1 97C407.54 97.16 406.956 97.24 406.348 97.24ZM410.956 90.088C410.908 89.416 410.748 88.808 410.476 88.264C410.22 87.704 409.884 87.224 409.468 86.824C409.068 86.424 408.596 86.112 408.052 85.888C407.524 85.664 406.956 85.552 406.348 85.552C405.74 85.552 405.164 85.664 404.62 85.888C404.076 86.112 403.596 86.424 403.18 86.824C402.78 87.224 402.452 87.704 402.196 88.264C401.956 88.824 401.812 89.432 401.764 90.088H410.956ZM421.488 97V79.96H432.672V81.448H423.168V87.712H431.184V89.104H423.168V97H421.488ZM435.298 97V85.792H433.57V84.496H435.298V84.16C435.298 82.624 435.626 81.424 436.282 80.56C436.938 79.68 437.834 79.24 438.97 79.24C439.466 79.24 439.946 79.312 440.41 79.456C440.874 79.6 441.274 79.792 441.61 80.032L441.106 81.208C440.882 81.032 440.602 80.896 440.266 80.8C439.946 80.704 439.618 80.656 439.282 80.656C438.514 80.656 437.93 80.952 437.53 81.544C437.13 82.136 436.93 82.992 436.93 84.112V84.496H440.386V85.792H436.93V97H435.298ZM460.87 94.504C459.286 96.248 457.462 97.12 455.398 97.12C454.246 97.12 453.182 96.872 452.206 96.376C451.246 95.88 450.406 95.224 449.686 94.408C448.982 93.592 448.43 92.672 448.03 91.648C447.63 90.608 447.43 89.544 447.43 88.456C447.43 87.32 447.622 86.232 448.006 85.192C448.406 84.152 448.958 83.24 449.662 82.456C450.366 81.656 451.198 81.024 452.158 80.56C453.118 80.08 454.166 79.84 455.302 79.84C456.134 79.84 456.894 79.936 457.582 80.128C458.27 80.304 458.878 80.56 459.406 80.896C459.95 81.216 460.414 81.608 460.798 82.072C461.198 82.52 461.534 83.016 461.806 83.56L460.51 84.424C459.95 83.368 459.222 82.592 458.326 82.096C457.43 81.6 456.414 81.352 455.278 81.352C454.334 81.352 453.478 81.552 452.71 81.952C451.958 82.352 451.31 82.888 450.766 83.56C450.238 84.216 449.83 84.976 449.542 85.84C449.254 86.688 449.11 87.568 449.11 88.48C449.11 89.44 449.27 90.352 449.59 91.216C449.926 92.08 450.382 92.84 450.958 93.496C451.534 94.136 452.206 94.648 452.974 95.032C453.758 95.416 454.606 95.608 455.518 95.608C456.494 95.608 457.422 95.384 458.302 94.936C459.198 94.472 460.054 93.744 460.87 92.752V89.92H457.078V88.624H462.286V97H460.87V94.504ZM470.418 97.168C469.554 97.168 468.762 96.992 468.042 96.64C467.338 96.272 466.722 95.792 466.194 95.2C465.682 94.608 465.282 93.928 464.994 93.16C464.706 92.392 464.562 91.6 464.562 90.784C464.562 89.92 464.698 89.096 464.97 88.312C465.258 87.512 465.658 86.816 466.17 86.224C466.682 85.632 467.29 85.16 467.994 84.808C468.714 84.456 469.506 84.28 470.37 84.28C471.442 84.28 472.37 84.552 473.154 85.096C473.938 85.624 474.61 86.296 475.17 87.112V84.496H476.634V97.048C476.634 97.912 476.466 98.672 476.13 99.328C475.81 100 475.37 100.56 474.81 101.008C474.266 101.456 473.618 101.792 472.866 102.016C472.13 102.24 471.346 102.352 470.514 102.352C469.074 102.352 467.914 102.096 467.034 101.584C466.154 101.072 465.442 100.384 464.898 99.52L465.906 98.728C466.402 99.528 467.058 100.112 467.874 100.48C468.69 100.864 469.57 101.056 470.514 101.056C471.122 101.056 471.698 100.968 472.242 100.792C472.786 100.632 473.258 100.384 473.658 100.048C474.074 99.728 474.402 99.312 474.642 98.8C474.882 98.304 475.002 97.72 475.002 97.048V94.576C474.522 95.376 473.866 96.008 473.034 96.472C472.202 96.936 471.33 97.168 470.418 97.168ZM470.874 95.8C471.354 95.8 471.826 95.712 472.29 95.536C472.754 95.36 473.17 95.128 473.538 94.84C473.922 94.536 474.242 94.2 474.498 93.832C474.754 93.464 474.922 93.088 475.002 92.704V88.84C474.826 88.392 474.586 87.976 474.282 87.592C473.978 87.208 473.634 86.88 473.25 86.608C472.866 86.336 472.45 86.12 472.002 85.96C471.57 85.8 471.13 85.72 470.682 85.72C469.978 85.72 469.346 85.872 468.786 86.176C468.242 86.464 467.778 86.848 467.394 87.328C467.01 87.808 466.714 88.352 466.506 88.96C466.314 89.568 466.218 90.184 466.218 90.808C466.218 91.48 466.338 92.12 466.578 92.728C466.818 93.336 467.146 93.872 467.562 94.336C467.994 94.784 468.49 95.144 469.05 95.416C469.61 95.672 470.218 95.8 470.874 95.8ZM500.131 79.96V97H498.475V89.032H488.371V97H486.691V79.96H488.371V87.544H498.475V79.96H500.131ZM514.585 97H512.953V90.016C512.953 88.592 512.705 87.528 512.209 86.824C511.729 86.12 511.017 85.768 510.073 85.768C509.609 85.768 509.145 85.864 508.681 86.056C508.233 86.232 507.809 86.48 507.409 86.8C507.009 87.12 506.657 87.496 506.353 87.928C506.065 88.36 505.849 88.832 505.705 89.344V97H504.073V79.48H505.705V87.328C506.201 86.384 506.889 85.64 507.769 85.096C508.649 84.552 509.601 84.28 510.625 84.28C511.345 84.28 511.953 84.416 512.449 84.688C512.945 84.944 513.353 85.312 513.673 85.792C513.993 86.256 514.225 86.824 514.369 87.496C514.513 88.152 514.585 88.88 514.585 89.68V97ZM241.136 125V107.96H242.816V125H241.136ZM246.753 125V112.496H248.385V125H246.753ZM246.753 109.88V107.48H248.385V109.88H246.753ZM258.433 125V107.984H260.113V117.872L269.497 107.96H271.345L264.385 115.448L271.705 125H269.857L263.329 116.432L260.113 119.768V125H258.433ZM282.447 125L277.839 118.592L275.151 121.088V125H273.519V107.48H275.151V119.384L282.183 112.52H284.031L278.919 117.632L284.223 125H282.447ZM292.699 125V107.96H294.379V123.512H304.219V125H292.699ZM306.427 107.48H308.059V122.168C308.059 122.632 308.187 123 308.443 123.272C308.699 123.528 309.059 123.656 309.523 123.656C309.699 123.656 309.907 123.632 310.147 123.584C310.387 123.536 310.611 123.472 310.819 123.392L311.107 124.712C310.803 124.84 310.427 124.944 309.979 125.024C309.547 125.104 309.171 125.144 308.851 125.144C308.099 125.144 307.507 124.936 307.075 124.52C306.643 124.088 306.427 123.488 306.427 122.72V107.48ZM333.693 125V111.008L327.477 121.832H326.493L320.277 111.008V125H318.597V107.96H320.325L326.973 119.624L333.669 107.96H335.373V125H333.693ZM357.908 125H356.276V118.016C356.276 116.56 356.044 115.488 355.58 114.8C355.116 114.112 354.428 113.768 353.516 113.768C353.036 113.768 352.58 113.856 352.148 114.032C351.732 114.208 351.34 114.456 350.972 114.776C350.62 115.096 350.308 115.48 350.036 115.928C349.764 116.36 349.556 116.84 349.412 117.368V125H347.78V118.016C347.78 116.528 347.556 115.448 347.108 114.776C346.66 114.104 345.972 113.768 345.044 113.768C344.1 113.768 343.26 114.096 342.524 114.752C341.788 115.408 341.26 116.272 340.94 117.344V125H339.308V112.496H340.796V115.328C341.308 114.368 341.98 113.624 342.812 113.096C343.644 112.552 344.564 112.28 345.572 112.28C346.628 112.28 347.468 112.576 348.092 113.168C348.732 113.76 349.124 114.536 349.268 115.496C350.436 113.352 352.044 112.28 354.092 112.28C354.796 112.28 355.388 112.408 355.868 112.664C356.364 112.92 356.756 113.288 357.044 113.768C357.348 114.232 357.564 114.8 357.692 115.472C357.836 116.128 357.908 116.864 357.908 117.68V125ZM369.496 111.08V125H367.816V107.96H369.112L380.392 122.144V107.984H382.072V125H380.608L369.496 111.08ZM396.531 125H394.899V118.016C394.899 116.528 394.675 115.448 394.227 114.776C393.795 114.104 393.123 113.768 392.211 113.768C391.731 113.768 391.251 113.856 390.771 114.032C390.291 114.208 389.843 114.456 389.427 114.776C389.027 115.096 388.667 115.48 388.347 115.928C388.027 116.36 387.795 116.832 387.651 117.344V125H386.019V112.496H387.507V115.328C388.019 114.416 388.747 113.68 389.691 113.12C390.651 112.56 391.691 112.28 392.811 112.28C393.499 112.28 394.083 112.408 394.563 112.664C395.043 112.92 395.427 113.28 395.715 113.744C396.003 114.208 396.211 114.776 396.339 115.448C396.467 116.12 396.531 116.864 396.531 117.68V125ZM413.328 125.12C412.144 125.12 411.056 124.88 410.064 124.4C409.088 123.904 408.248 123.256 407.544 122.456C406.84 121.64 406.296 120.712 405.912 119.672C405.528 118.632 405.336 117.568 405.336 116.48C405.336 115.344 405.536 114.256 405.936 113.216C406.352 112.176 406.92 111.256 407.64 110.456C408.36 109.656 409.208 109.024 410.184 108.56C411.16 108.08 412.216 107.84 413.352 107.84C414.536 107.84 415.616 108.096 416.592 108.608C417.584 109.104 418.424 109.76 419.112 110.576C419.816 111.392 420.36 112.32 420.744 113.36C421.128 114.384 421.32 115.432 421.32 116.504C421.32 117.64 421.112 118.728 420.696 119.768C420.296 120.808 419.736 121.728 419.016 122.528C418.312 123.312 417.472 123.944 416.496 124.424C415.52 124.888 414.464 125.12 413.328 125.12ZM407.016 116.48C407.016 117.408 407.168 118.304 407.472 119.168C407.776 120.016 408.208 120.776 408.768 121.448C409.328 122.104 409.992 122.632 410.76 123.032C411.528 123.416 412.384 123.608 413.328 123.608C414.288 123.608 415.16 123.4 415.944 122.984C416.728 122.568 417.392 122.024 417.936 121.352C418.48 120.68 418.896 119.92 419.184 119.072C419.488 118.224 419.64 117.36 419.64 116.48C419.64 115.552 419.48 114.664 419.16 113.816C418.856 112.952 418.424 112.192 417.864 111.536C417.304 110.88 416.64 110.36 415.872 109.976C415.104 109.576 414.256 109.376 413.328 109.376C412.368 109.376 411.496 109.584 410.712 110C409.928 110.4 409.264 110.936 408.72 111.608C408.176 112.28 407.752 113.04 407.448 113.888C407.16 114.736 407.016 115.6 407.016 116.48ZM429.48 125.24C428.568 125.24 427.736 125.072 426.984 124.736C426.232 124.384 425.576 123.912 425.016 123.32C424.472 122.728 424.048 122.04 423.744 121.256C423.44 120.472 423.288 119.648 423.288 118.784C423.288 117.904 423.44 117.072 423.744 116.288C424.064 115.504 424.496 114.816 425.04 114.224C425.6 113.632 426.256 113.16 427.008 112.808C427.76 112.456 428.584 112.28 429.48 112.28C430.376 112.28 431.2 112.456 431.952 112.808C432.72 113.16 433.376 113.632 433.92 114.224C434.48 114.816 434.912 115.504 435.216 116.288C435.536 117.072 435.696 117.904 435.696 118.784C435.696 119.648 435.544 120.472 435.24 121.256C434.936 122.04 434.504 122.728 433.944 123.32C433.4 123.912 432.744 124.384 431.976 124.736C431.224 125.072 430.392 125.24 429.48 125.24ZM424.944 118.808C424.944 119.512 425.064 120.168 425.304 120.776C425.544 121.368 425.864 121.896 426.264 122.36C426.68 122.808 427.16 123.16 427.704 123.416C428.264 123.672 428.856 123.8 429.48 123.8C430.104 123.8 430.688 123.672 431.232 123.416C431.792 123.144 432.28 122.784 432.696 122.336C433.112 121.872 433.44 121.336 433.68 120.728C433.92 120.12 434.04 119.464 434.04 118.76C434.04 118.072 433.92 117.424 433.68 116.816C433.44 116.192 433.112 115.656 432.696 115.208C432.28 114.744 431.792 114.384 431.232 114.128C430.688 113.856 430.104 113.72 429.48 113.72C428.856 113.72 428.272 113.856 427.728 114.128C427.184 114.384 426.704 114.744 426.288 115.208C425.872 115.672 425.544 116.216 425.304 116.84C425.064 117.448 424.944 118.104 424.944 118.808ZM444.878 125V107.96H451.934C452.67 107.96 453.342 108.12 453.95 108.44C454.574 108.744 455.11 109.152 455.558 109.664C456.006 110.16 456.358 110.728 456.614 111.368C456.87 112.008 456.998 112.656 456.998 113.312C456.998 114.016 456.878 114.696 456.638 115.352C456.398 115.992 456.062 116.56 455.63 117.056C455.198 117.552 454.678 117.952 454.07 118.256C453.478 118.56 452.814 118.712 452.078 118.712H446.558V125H444.878ZM446.558 117.224H452.006C452.502 117.224 452.95 117.12 453.35 116.912C453.766 116.688 454.118 116.4 454.406 116.048C454.694 115.68 454.918 115.264 455.078 114.8C455.238 114.32 455.318 113.824 455.318 113.312C455.318 112.784 455.222 112.288 455.03 111.824C454.854 111.344 454.606 110.928 454.286 110.576C453.982 110.224 453.614 109.952 453.182 109.76C452.766 109.552 452.326 109.448 451.862 109.448H446.558V117.224ZM465.856 125.24C464.8 125.24 463.864 124.976 463.048 124.448C462.248 123.904 461.6 123.224 461.104 122.408V130.112H459.472V112.496H460.936V114.92C461.448 114.136 462.112 113.504 462.928 113.024C463.744 112.528 464.632 112.28 465.592 112.28C466.456 112.28 467.248 112.464 467.968 112.832C468.688 113.184 469.312 113.664 469.84 114.272C470.368 114.864 470.776 115.552 471.064 116.336C471.368 117.12 471.52 117.928 471.52 118.76C471.52 119.64 471.384 120.472 471.112 121.256C470.84 122.04 470.448 122.728 469.936 123.32C469.44 123.912 468.84 124.384 468.136 124.736C467.448 125.072 466.688 125.24 465.856 125.24ZM465.4 123.8C466.072 123.8 466.68 123.656 467.224 123.368C467.784 123.08 468.256 122.704 468.64 122.24C469.04 121.76 469.344 121.224 469.552 120.632C469.76 120.024 469.864 119.4 469.864 118.76C469.864 118.088 469.744 117.448 469.504 116.84C469.264 116.232 468.936 115.696 468.52 115.232C468.104 114.768 467.608 114.4 467.032 114.128C466.472 113.856 465.864 113.72 465.208 113.72C464.792 113.72 464.352 113.808 463.888 113.984C463.44 114.144 463.016 114.368 462.616 114.656C462.232 114.928 461.896 115.256 461.608 115.64C461.336 116.008 461.168 116.4 461.104 116.816V120.656C461.296 121.104 461.536 121.52 461.824 121.904C462.128 122.288 462.464 122.624 462.832 122.912C463.216 123.184 463.624 123.4 464.056 123.56C464.488 123.72 464.936 123.8 465.4 123.8ZM492.258 123.488C491.602 124 490.882 124.4 490.098 124.688C489.33 124.976 488.498 125.12 487.602 125.12C486.418 125.12 485.33 124.872 484.338 124.376C483.362 123.88 482.522 123.232 481.818 122.432C481.114 121.632 480.57 120.712 480.186 119.672C479.802 118.632 479.61 117.568 479.61 116.48C479.61 115.344 479.81 114.256 480.21 113.216C480.626 112.176 481.194 111.256 481.914 110.456C482.634 109.656 483.482 109.024 484.458 108.56C485.434 108.08 486.49 107.84 487.626 107.84C488.81 107.84 489.89 108.096 490.866 108.608C491.858 109.104 492.698 109.76 493.386 110.576C494.09 111.392 494.634 112.32 495.018 113.36C495.402 114.384 495.594 115.432 495.594 116.504C495.594 117.672 495.378 118.784 494.946 119.84C494.53 120.896 493.946 121.824 493.194 122.624L495.21 125H493.554L492.258 123.488ZM487.602 123.608C488.322 123.608 488.986 123.496 489.594 123.272C490.202 123.032 490.762 122.712 491.274 122.312L489.138 119.768H490.794L492.162 121.4C492.722 120.728 493.154 119.968 493.458 119.12C493.762 118.256 493.914 117.376 493.914 116.48C493.914 115.552 493.754 114.664 493.434 113.816C493.13 112.952 492.698 112.192 492.138 111.536C491.578 110.88 490.914 110.352 490.146 109.952C489.378 109.552 488.53 109.352 487.602 109.352C486.642 109.352 485.77 109.56 484.986 109.976C484.202 110.376 483.538 110.912 482.994 111.584C482.45 112.256 482.026 113.024 481.722 113.888C481.434 114.736 481.29 115.6 481.29 116.48C481.29 117.408 481.442 118.304 481.746 119.168C482.05 120.016 482.482 120.776 483.042 121.448C483.602 122.104 484.266 122.632 485.034 123.032C485.802 123.416 486.658 123.608 487.602 123.608ZM503.202 125.24C502.354 125.24 501.578 125.064 500.874 124.712C500.186 124.344 499.594 123.864 499.098 123.272C498.602 122.664 498.218 121.976 497.946 121.208C497.674 120.424 497.538 119.608 497.538 118.76C497.538 117.896 497.69 117.072 497.994 116.288C498.298 115.504 498.714 114.816 499.242 114.224C499.786 113.632 500.418 113.16 501.138 112.808C501.874 112.456 502.658 112.28 503.49 112.28C503.97 112.28 504.434 112.352 504.882 112.496C505.346 112.624 505.778 112.808 506.178 113.048C506.578 113.272 506.938 113.552 507.258 113.888C507.594 114.208 507.882 114.56 508.122 114.944V112.496H509.586V127.928C509.586 128.376 509.786 128.608 510.186 128.624V130.04C510.026 130.072 509.866 130.088 509.706 130.088C509.562 130.088 509.418 130.088 509.274 130.088C508.906 130.056 508.594 129.896 508.338 129.608C508.082 129.336 507.954 129.008 507.954 128.624V122.408C507.346 123.336 506.642 124.04 505.842 124.52C505.042 125 504.162 125.24 503.202 125.24ZM503.706 123.8C504.186 123.8 504.634 123.72 505.05 123.56C505.482 123.4 505.874 123.192 506.226 122.936C506.594 122.664 506.922 122.352 507.21 122C507.498 121.632 507.746 121.248 507.954 120.848V116.984C507.89 116.552 507.722 116.144 507.45 115.76C507.178 115.36 506.842 115.008 506.442 114.704C506.058 114.4 505.634 114.16 505.17 113.984C504.706 113.808 504.25 113.72 503.802 113.72C503.13 113.72 502.506 113.864 501.93 114.152C501.37 114.44 500.882 114.824 500.466 115.304C500.066 115.768 499.754 116.304 499.53 116.912C499.306 117.52 499.194 118.144 499.194 118.784C499.194 119.456 499.306 120.096 499.53 120.704C499.754 121.312 500.066 121.848 500.466 122.312C500.866 122.76 501.338 123.12 501.882 123.392C502.442 123.664 503.05 123.8 503.706 123.8ZM241.136 153V135.96H248.336C249.072 135.96 249.744 136.12 250.352 136.44C250.976 136.744 251.512 137.152 251.96 137.664C252.408 138.16 252.752 138.728 252.992 139.368C253.248 140.008 253.376 140.656 253.376 141.312C253.376 141.936 253.28 142.536 253.088 143.112C252.912 143.672 252.656 144.184 252.32 144.648C252 145.096 251.608 145.48 251.144 145.8C250.68 146.104 250.16 146.312 249.584 146.424L253.76 153H251.864L247.856 146.712H242.816V153H241.136ZM242.816 145.224H248.384C248.88 145.224 249.328 145.12 249.728 144.912C250.144 144.688 250.496 144.392 250.784 144.024C251.072 143.656 251.296 143.24 251.456 142.776C251.616 142.312 251.696 141.824 251.696 141.312C251.696 140.8 251.6 140.312 251.408 139.848C251.232 139.368 250.984 138.952 250.664 138.6C250.36 138.248 249.992 137.968 249.56 137.76C249.144 137.552 248.704 137.448 248.24 137.448H242.816V145.224ZM262.603 141.936C261.499 141.968 260.539 142.272 259.723 142.848C258.907 143.424 258.331 144.216 257.995 145.224V153H256.363V140.496H257.899V143.496C258.363 142.536 258.987 141.784 259.771 141.24C260.555 140.696 261.395 140.424 262.291 140.424C262.419 140.424 262.523 140.432 262.603 140.448V141.936ZM280.604 139.152C280.124 138.608 279.484 138.168 278.684 137.832C277.884 137.496 276.972 137.328 275.948 137.328C274.444 137.328 273.348 137.616 272.66 138.192C271.972 138.752 271.628 139.52 271.628 140.496C271.628 141.008 271.716 141.432 271.892 141.768C272.084 142.088 272.372 142.368 272.756 142.608C273.14 142.848 273.628 143.056 274.22 143.232C274.828 143.408 275.54 143.584 276.356 143.76C277.268 143.952 278.084 144.168 278.804 144.408C279.54 144.648 280.164 144.952 280.676 145.32C281.188 145.672 281.58 146.104 281.852 146.616C282.124 147.128 282.26 147.768 282.26 148.536C282.26 149.32 282.108 150 281.804 150.576C281.5 151.152 281.076 151.632 280.532 152.016C279.988 152.4 279.34 152.688 278.588 152.88C277.836 153.056 277.012 153.144 276.116 153.144C273.476 153.144 271.196 152.32 269.276 150.672L270.116 149.304C270.42 149.624 270.78 149.928 271.196 150.216C271.628 150.504 272.1 150.76 272.612 150.984C273.14 151.192 273.7 151.36 274.292 151.488C274.884 151.6 275.508 151.656 276.164 151.656C277.524 151.656 278.58 151.416 279.332 150.936C280.1 150.44 280.484 149.696 280.484 148.704C280.484 148.176 280.372 147.736 280.148 147.384C279.94 147.016 279.62 146.704 279.188 146.448C278.756 146.176 278.22 145.944 277.58 145.752C276.94 145.56 276.196 145.368 275.348 145.176C274.452 144.968 273.668 144.752 272.996 144.528C272.324 144.304 271.756 144.024 271.292 143.688C270.828 143.352 270.476 142.952 270.236 142.488C270.012 142.008 269.9 141.424 269.9 140.736C269.9 139.952 270.044 139.256 270.332 138.648C270.636 138.024 271.06 137.512 271.604 137.112C272.148 136.696 272.788 136.384 273.524 136.176C274.26 135.952 275.076 135.84 275.972 135.84C277.108 135.84 278.116 136.016 278.996 136.368C279.892 136.704 280.7 137.184 281.42 137.808L280.604 139.152ZM289.038 153.24C288.062 153.24 287.11 153.08 286.182 152.76C285.254 152.44 284.454 151.976 283.782 151.368L284.526 150.264C285.23 150.84 285.942 151.272 286.662 151.56C287.398 151.848 288.182 151.992 289.014 151.992C290.022 151.992 290.822 151.792 291.414 151.392C292.022 150.976 292.326 150.392 292.326 149.64C292.326 149.288 292.246 149 292.086 148.776C291.926 148.536 291.686 148.328 291.366 148.152C291.062 147.976 290.67 147.824 290.19 147.696C289.726 147.552 289.182 147.408 288.558 147.264C287.838 147.088 287.214 146.912 286.686 146.736C286.158 146.56 285.718 146.36 285.366 146.136C285.03 145.912 284.774 145.64 284.598 145.32C284.438 144.984 284.358 144.568 284.358 144.072C284.358 143.448 284.478 142.896 284.718 142.416C284.974 141.936 285.31 141.544 285.726 141.24C286.158 140.92 286.654 140.68 287.214 140.52C287.79 140.36 288.398 140.28 289.038 140.28C289.998 140.28 290.87 140.44 291.654 140.76C292.438 141.064 293.07 141.472 293.55 141.984L292.758 142.944C292.294 142.464 291.726 142.104 291.054 141.864C290.398 141.624 289.71 141.504 288.99 141.504C288.558 141.504 288.158 141.552 287.79 141.648C287.422 141.728 287.094 141.864 286.806 142.056C286.534 142.248 286.318 142.496 286.158 142.8C285.998 143.088 285.918 143.432 285.918 143.832C285.918 144.168 285.974 144.44 286.086 144.648C286.198 144.856 286.382 145.04 286.638 145.2C286.894 145.344 287.214 145.48 287.598 145.608C287.998 145.72 288.478 145.84 289.038 145.968C289.838 146.16 290.542 146.352 291.15 146.544C291.758 146.736 292.262 146.96 292.662 147.216C293.078 147.472 293.39 147.784 293.598 148.152C293.806 148.52 293.91 148.968 293.91 149.496C293.91 150.648 293.47 151.56 292.59 152.232C291.71 152.904 290.526 153.24 289.038 153.24ZM314.451 137.448H308.379V153H306.699V137.448H300.627V135.96H314.451V137.448ZM322.55 152.4C322.454 152.448 322.31 152.512 322.118 152.592C321.942 152.672 321.734 152.752 321.494 152.832C321.254 152.912 320.982 152.984 320.678 153.048C320.374 153.112 320.054 153.144 319.718 153.144C319.366 153.144 319.03 153.096 318.71 153C318.39 152.904 318.11 152.76 317.87 152.568C317.63 152.36 317.438 152.104 317.294 151.8C317.15 151.496 317.078 151.144 317.078 150.744V141.792H315.35V140.496H317.078V136.272H318.71V140.496H321.59V141.792H318.71V150.288C318.742 150.752 318.902 151.096 319.19 151.32C319.494 151.528 319.838 151.632 320.222 151.632C320.686 151.632 321.094 151.56 321.446 151.416C321.798 151.256 322.022 151.144 322.118 151.08L322.55 152.4ZM336.63 136.08H338.214L340.614 142.128L343.038 136.08H344.646L341.67 143.352L344.934 151.056L351.102 135.96H352.926L345.702 153H344.214L340.638 144.576L337.038 153H335.574L328.374 135.96H330.174L336.366 151.056L339.606 143.352L336.63 136.08ZM370.427 140.496H372.035L366.659 153H365.315L362.627 146.616L359.963 153H358.619L353.243 140.496H354.827L359.387 151.32L361.763 145.608L359.627 140.52H360.995L362.627 144.6L364.259 140.52H365.651L363.515 145.608L365.891 151.32L370.427 140.496ZM379.602 135.96L385.194 143.4L390.786 135.96H392.634L386.082 144.6L392.442 153H390.594L385.194 145.8L379.794 153H377.898L384.258 144.6L377.706 135.96H379.602ZM394.862 140.496L398.606 145.392L398.798 145.752L398.99 145.392L402.734 140.496H404.486L399.71 146.784L404.486 153H402.734L398.99 148.128L398.798 147.792L398.606 148.128L394.862 153H393.11L397.886 146.784L393.11 140.496H394.862ZM412.373 135.96L417.941 145.128L423.557 135.96H425.381L418.781 146.664V153H417.101V146.616L410.525 135.96H412.373ZM427.473 156.84C427.601 156.856 427.721 156.864 427.833 156.864C427.961 156.88 428.081 156.888 428.193 156.888C428.481 156.888 428.705 156.848 428.865 156.768C429.041 156.688 429.209 156.512 429.369 156.24C429.529 155.968 429.705 155.576 429.897 155.064C430.105 154.552 430.393 153.864 430.761 153L425.313 140.496H426.993L431.625 151.488L435.921 140.496H437.481L431.001 156.624C430.825 157.088 430.529 157.488 430.113 157.824C429.713 158.176 429.161 158.352 428.457 158.352C428.297 158.352 428.145 158.344 428.001 158.328C427.857 158.328 427.681 158.312 427.473 158.28V156.84ZM444.166 151.68L455.758 137.448H444.358V135.96H457.702V137.28L446.254 151.512H457.678V153H444.166V151.68ZM459.26 151.896L467.708 141.72H459.452V140.496H469.484V141.6L461.06 151.776H469.46V153H459.26V151.896Z" fill="black"/>
<rect x="29" y="197" width="103" height="42" rx="6" fill="#FCAA2E" fill-opacity="0.2"/>
<path d="M39.136 226V208.96H46.336C47.072 208.96 47.744 209.12 48.352 209.44C48.976 209.744 49.512 210.152 49.96 210.664C50.408 211.16 50.752 211.728 50.992 212.368C51.248 213.008 51.376 213.656 51.376 214.312C51.376 214.936 51.28 215.536 51.088 216.112C50.912 216.672 50.656 217.184 50.32 217.648C50 218.096 49.608 218.48 49.144 218.8C48.68 219.104 48.16 219.312 47.584 219.424L51.76 226H49.864L45.856 219.712H40.816V226H39.136ZM40.816 218.224H46.384C46.88 218.224 47.328 218.12 47.728 217.912C48.144 217.688 48.496 217.392 48.784 217.024C49.072 216.656 49.296 216.24 49.456 215.776C49.616 215.312 49.696 214.824 49.696 214.312C49.696 213.8 49.6 213.312 49.408 212.848C49.232 212.368 48.984 211.952 48.664 211.6C48.36 211.248 47.992 210.968 47.56 210.76C47.144 210.552 46.704 210.448 46.24 210.448H40.816V218.224ZM59.5281 226.24C58.6161 226.24 57.7761 226.072 57.0081 225.736C56.2561 225.384 55.6001 224.912 55.0401 224.32C54.4801 223.712 54.0401 223.016 53.7201 222.232C53.4161 221.448 53.2641 220.608 53.2641 219.712C53.2641 218.832 53.4161 218.008 53.7201 217.24C54.0401 216.456 54.4721 215.776 55.0161 215.2C55.5761 214.608 56.2401 214.144 57.0081 213.808C57.7761 213.456 58.6081 213.28 59.5041 213.28C60.4161 213.28 61.2481 213.456 62.0001 213.808C62.7681 214.144 63.4241 214.608 63.9681 215.2C64.5121 215.792 64.9361 216.472 65.2401 217.24C65.5441 218.008 65.6961 218.824 65.6961 219.688C65.6961 219.816 65.6961 219.944 65.6961 220.072C65.6961 220.2 65.6881 220.288 65.6721 220.336H54.9681C55.0161 221.008 55.1681 221.632 55.4241 222.208C55.6961 222.768 56.0401 223.256 56.4561 223.672C56.8721 224.088 57.3441 224.416 57.8721 224.656C58.4161 224.88 58.9921 224.992 59.6001 224.992C60.0001 224.992 60.4001 224.936 60.8001 224.824C61.2001 224.712 61.5681 224.56 61.9041 224.368C62.2401 224.176 62.5441 223.944 62.8161 223.672C63.0881 223.384 63.2961 223.072 63.4401 222.736L64.8561 223.12C64.6641 223.584 64.3921 224.008 64.0401 224.392C63.6881 224.76 63.2801 225.088 62.8161 225.376C62.3521 225.648 61.8401 225.856 61.2801 226C60.7201 226.16 60.1361 226.24 59.5281 226.24ZM64.1361 219.088C64.0881 218.416 63.9281 217.808 63.6561 217.264C63.4001 216.704 63.0641 216.224 62.6481 215.824C62.2481 215.424 61.7761 215.112 61.2321 214.888C60.7041 214.664 60.1361 214.552 59.5281 214.552C58.9201 214.552 58.3441 214.664 57.8001 214.888C57.2561 215.112 56.7761 215.424 56.3601 215.824C55.9601 216.224 55.6321 216.704 55.3761 217.264C55.1361 217.824 54.9921 218.432 54.9441 219.088H64.1361ZM73.2301 226.168C72.3661 226.168 71.5741 225.992 70.8541 225.64C70.1501 225.272 69.5341 224.792 69.0061 224.2C68.4941 223.608 68.0941 222.928 67.8061 222.16C67.5181 221.392 67.3741 220.6 67.3741 219.784C67.3741 218.92 67.5101 218.096 67.7821 217.312C68.0701 216.512 68.4701 215.816 68.9821 215.224C69.4941 214.632 70.1021 214.16 70.8061 213.808C71.5261 213.456 72.3181 213.28 73.1821 213.28C74.2541 213.28 75.1821 213.552 75.9661 214.096C76.7501 214.624 77.4221 215.296 77.9821 216.112V213.496H79.4461V226.048C79.4461 226.912 79.2781 227.672 78.9421 228.328C78.6221 229 78.1821 229.56 77.6221 230.008C77.0781 230.456 76.4301 230.792 75.6781 231.016C74.9421 231.24 74.1581 231.352 73.3261 231.352C71.8861 231.352 70.7261 231.096 69.8461 230.584C68.9661 230.072 68.2541 229.384 67.7101 228.52L68.7181 227.728C69.2141 228.528 69.8701 229.112 70.6861 229.48C71.5021 229.864 72.3821 230.056 73.3261 230.056C73.9341 230.056 74.5101 229.968 75.0541 229.792C75.5981 229.632 76.0701 229.384 76.4701 229.048C76.8861 228.728 77.2141 228.312 77.4541 227.8C77.6941 227.304 77.8141 226.72 77.8141 226.048V223.576C77.3341 224.376 76.6781 225.008 75.8461 225.472C75.0141 225.936 74.1421 226.168 73.2301 226.168ZM73.6861 224.8C74.1661 224.8 74.6381 224.712 75.1021 224.536C75.5661 224.36 75.9821 224.128 76.3501 223.84C76.7341 223.536 77.0541 223.2 77.3101 222.832C77.5661 222.464 77.7341 222.088 77.8141 221.704V217.84C77.6381 217.392 77.3981 216.976 77.0941 216.592C76.7901 216.208 76.4461 215.88 76.0621 215.608C75.6781 215.336 75.2621 215.12 74.8141 214.96C74.3821 214.8 73.9421 214.72 73.4941 214.72C72.7901 214.72 72.1581 214.872 71.5981 215.176C71.0541 215.464 70.5901 215.848 70.2061 216.328C69.8221 216.808 69.5261 217.352 69.3181 217.96C69.1261 218.568 69.0301 219.184 69.0301 219.808C69.0301 220.48 69.1501 221.12 69.3901 221.728C69.6301 222.336 69.9581 222.872 70.3741 223.336C70.8061 223.784 71.3021 224.144 71.8621 224.416C72.4221 224.672 73.0301 224.8 73.6861 224.8ZM86.962 226.24C85.602 226.24 84.586 225.792 83.914 224.896C83.258 223.984 82.93 222.632 82.93 220.84V213.496H84.562V220.552C84.562 223.384 85.53 224.8 87.466 224.8C87.946 224.8 88.418 224.72 88.882 224.56C89.346 224.4 89.77 224.168 90.154 223.864C90.554 223.56 90.906 223.2 91.21 222.784C91.53 222.368 91.786 221.896 91.978 221.368V213.496H93.61V223.888C93.61 224.336 93.802 224.56 94.186 224.56V226C93.994 226.032 93.834 226.048 93.706 226.048C93.594 226.048 93.514 226.048 93.466 226.048C93.082 226.032 92.77 225.896 92.53 225.64C92.29 225.384 92.17 225.04 92.17 224.608V223.168C91.626 224.144 90.882 224.904 89.938 225.448C89.01 225.976 88.018 226.24 86.962 226.24ZM97.372 208.48H99.004V223.168C99.004 223.632 99.132 224 99.388 224.272C99.644 224.528 100.004 224.656 100.468 224.656C100.644 224.656 100.852 224.632 101.092 224.584C101.332 224.536 101.556 224.472 101.764 224.392L102.052 225.712C101.748 225.84 101.372 225.944 100.924 226.024C100.492 226.104 100.116 226.144 99.796 226.144C99.044 226.144 98.452 225.936 98.02 225.52C97.588 225.088 97.372 224.488 97.372 223.72V208.48ZM106.983 226.24C106.391 226.24 105.839 226.144 105.327 225.952C104.831 225.744 104.391 225.464 104.007 225.112C103.639 224.76 103.351 224.352 103.143 223.888C102.935 223.408 102.831 222.896 102.831 222.352C102.831 221.808 102.959 221.304 103.215 220.84C103.471 220.376 103.831 219.976 104.295 219.64C104.759 219.304 105.311 219.048 105.951 218.872C106.591 218.68 107.295 218.584 108.063 218.584C108.703 218.584 109.351 218.64 110.007 218.752C110.663 218.864 111.247 219.024 111.759 219.232V218.104C111.759 217 111.447 216.128 110.823 215.488C110.199 214.832 109.335 214.504 108.231 214.504C107.591 214.504 106.935 214.632 106.263 214.888C105.591 215.144 104.911 215.512 104.223 215.992L103.647 214.912C105.263 213.824 106.831 213.28 108.351 213.28C109.919 213.28 111.151 213.72 112.047 214.6C112.943 215.48 113.391 216.696 113.391 218.248V223.888C113.391 224.336 113.591 224.56 113.991 224.56V226C113.719 226.048 113.511 226.072 113.367 226.072C112.951 226.072 112.623 225.968 112.383 225.76C112.159 225.552 112.039 225.264 112.023 224.896L111.975 223.912C111.399 224.664 110.671 225.24 109.791 225.64C108.927 226.04 107.991 226.24 106.983 226.24ZM107.367 224.992C108.215 224.992 108.991 224.832 109.695 224.512C110.415 224.192 110.959 223.768 111.327 223.24C111.471 223.096 111.575 222.944 111.639 222.784C111.719 222.608 111.759 222.448 111.759 222.304V220.264C111.215 220.056 110.647 219.896 110.055 219.784C109.479 219.672 108.887 219.616 108.279 219.616C107.127 219.616 106.191 219.856 105.471 220.336C104.751 220.816 104.391 221.448 104.391 222.232C104.391 222.616 104.463 222.976 104.607 223.312C104.767 223.648 104.975 223.944 105.231 224.2C105.503 224.44 105.823 224.632 106.191 224.776C106.559 224.92 106.951 224.992 107.367 224.992ZM123.157 214.936C122.053 214.968 121.093 215.272 120.277 215.848C119.461 216.424 118.885 217.216 118.549 218.224V226H116.917V213.496H118.453V216.496C118.917 215.536 119.541 214.784 120.325 214.24C121.109 213.696 121.949 213.424 122.845 213.424C122.973 213.424 123.077 213.432 123.157 213.448V214.936Z" fill="black"/>
<rect x="136" y="197" width="109" height="42" rx="6" fill="#FCAA2E" fill-opacity="0.2"/>
<path d="M160.776 226V212.824L155.112 222.928H153.888L148.2 212.824V226H146.04V208.96H148.32L154.488 220.024L160.68 208.96H162.936V226H160.776ZM172.014 226.24C171.07 226.24 170.206 226.072 169.422 225.736C168.638 225.384 167.966 224.912 167.406 224.32C166.846 223.728 166.406 223.04 166.086 222.256C165.782 221.456 165.63 220.616 165.63 219.736C165.63 218.856 165.782 218.024 166.086 217.24C166.406 216.456 166.846 215.768 167.406 215.176C167.982 214.584 168.662 214.12 169.446 213.784C170.23 213.432 171.094 213.256 172.038 213.256C172.982 213.256 173.838 213.432 174.606 213.784C175.39 214.136 176.054 214.608 176.598 215.2C177.142 215.776 177.558 216.456 177.846 217.24C178.15 218.008 178.302 218.808 178.302 219.64C178.302 219.816 178.294 219.976 178.278 220.12C178.278 220.264 178.27 220.376 178.254 220.456H167.862C167.91 221.08 168.054 221.648 168.294 222.16C168.534 222.672 168.846 223.112 169.23 223.48C169.614 223.848 170.046 224.136 170.526 224.344C171.022 224.552 171.542 224.656 172.086 224.656C172.47 224.656 172.846 224.608 173.214 224.512C173.582 224.4 173.926 224.256 174.246 224.08C174.566 223.904 174.846 223.688 175.086 223.432C175.342 223.176 175.534 222.888 175.662 222.568L177.486 223.072C177.278 223.536 176.99 223.96 176.622 224.344C176.27 224.728 175.854 225.064 175.374 225.352C174.91 225.624 174.39 225.84 173.814 226C173.238 226.16 172.638 226.24 172.014 226.24ZM176.31 218.896C176.262 218.304 176.11 217.76 175.854 217.264C175.614 216.752 175.302 216.32 174.918 215.968C174.55 215.616 174.118 215.344 173.622 215.152C173.126 214.944 172.598 214.84 172.038 214.84C171.478 214.84 170.95 214.944 170.454 215.152C169.958 215.344 169.518 215.624 169.134 215.992C168.766 216.344 168.462 216.768 168.222 217.264C167.998 217.76 167.862 218.304 167.814 218.896H176.31ZM185.809 226.24C184.945 226.24 184.145 226.064 183.409 225.712C182.673 225.36 182.041 224.888 181.513 224.296C180.985 223.704 180.569 223.016 180.265 222.232C179.977 221.448 179.833 220.624 179.833 219.76C179.833 218.88 179.969 218.048 180.241 217.264C180.529 216.464 180.921 215.768 181.417 215.176C181.929 214.584 182.529 214.12 183.217 213.784C183.921 213.432 184.689 213.256 185.521 213.256C186.529 213.256 187.425 213.52 188.209 214.048C189.009 214.576 189.641 215.216 190.105 215.968V208.48H192.217V223.408C192.217 223.904 192.441 224.16 192.889 224.176V226C192.665 226.032 192.481 226.056 192.337 226.072C192.209 226.088 192.081 226.096 191.953 226.096C191.537 226.096 191.169 225.96 190.849 225.688C190.545 225.4 190.393 225.072 190.393 224.704V223.648C189.897 224.464 189.233 225.104 188.401 225.568C187.585 226.016 186.721 226.24 185.809 226.24ZM186.313 224.416C186.697 224.416 187.089 224.344 187.489 224.2C187.905 224.056 188.289 223.856 188.641 223.6C189.009 223.344 189.321 223.048 189.577 222.712C189.849 222.36 190.025 221.992 190.105 221.608V218.008C189.961 217.608 189.745 217.232 189.457 216.88C189.169 216.512 188.841 216.2 188.473 215.944C188.121 215.672 187.737 215.464 187.321 215.32C186.921 215.16 186.521 215.08 186.121 215.08C185.497 215.08 184.929 215.216 184.417 215.488C183.921 215.744 183.489 216.096 183.121 216.544C182.769 216.976 182.497 217.48 182.305 218.056C182.113 218.616 182.017 219.192 182.017 219.784C182.017 220.408 182.129 221.008 182.353 221.584C182.577 222.144 182.881 222.632 183.265 223.048C183.649 223.464 184.097 223.8 184.609 224.056C185.137 224.296 185.705 224.416 186.313 224.416ZM195.743 226V213.472H197.855V226H195.743ZM195.743 211.12V208.48H197.855V211.12H195.743ZM205.138 226.24C203.826 226.24 202.834 225.8 202.162 224.92C201.49 224.04 201.154 222.728 201.154 220.984V213.472H203.266V220.576C203.266 223.136 204.154 224.416 205.93 224.416C206.794 224.416 207.602 224.144 208.354 223.6C209.122 223.04 209.69 222.28 210.058 221.32V213.472H212.17V223.408C212.17 223.904 212.394 224.16 212.842 224.176V226C212.602 226.032 212.41 226.048 212.266 226.048C212.138 226.064 212.01 226.072 211.882 226.072C211.466 226.072 211.114 225.952 210.826 225.712C210.554 225.456 210.41 225.144 210.394 224.776L210.346 223.312C209.786 224.256 209.05 224.984 208.138 225.496C207.226 225.992 206.226 226.24 205.138 226.24ZM234.576 226H232.464V218.992C232.464 217.68 232.248 216.712 231.816 216.088C231.4 215.464 230.776 215.152 229.944 215.152C229.08 215.152 228.304 215.464 227.616 216.088C226.944 216.696 226.464 217.488 226.176 218.464V226H224.064V218.992C224.064 217.648 223.856 216.672 223.44 216.064C223.024 215.456 222.4 215.152 221.568 215.152C220.72 215.152 219.952 215.456 219.264 216.064C218.576 216.656 218.088 217.448 217.8 218.44V226H215.688V213.472H217.608V216.16C218.12 215.232 218.784 214.52 219.6 214.024C220.416 213.512 221.336 213.256 222.36 213.256C223.416 213.256 224.248 213.544 224.856 214.12C225.48 214.68 225.864 215.408 226.008 216.304C227.128 214.272 228.72 213.256 230.784 213.256C231.504 213.256 232.104 213.392 232.584 213.664C233.08 213.92 233.472 214.288 233.76 214.768C234.048 215.232 234.256 215.784 234.384 216.424C234.512 217.064 234.576 217.76 234.576 218.512V226Z" fill="black"/>
<rect x="249" y="197" width="127" height="42" rx="6" fill="#FCAA2E" fill-opacity="0.2"/>
<path d="M269 212.968C268.84 212.792 268.608 212.608 268.304 212.416C268 212.208 267.64 212.016 267.224 211.84C266.824 211.664 266.376 211.52 265.88 211.408C265.4 211.296 264.904 211.24 264.392 211.24C263.256 211.24 262.416 211.448 261.872 211.864C261.344 212.28 261.08 212.856 261.08 213.592C261.08 214.008 261.16 214.352 261.32 214.624C261.496 214.88 261.76 215.112 262.112 215.32C262.464 215.512 262.904 215.688 263.432 215.848C263.96 215.992 264.576 216.152 265.28 216.328C266.144 216.536 266.92 216.768 267.608 217.024C268.312 217.28 268.904 217.592 269.384 217.96C269.864 218.328 270.232 218.784 270.488 219.328C270.76 219.856 270.896 220.504 270.896 221.272C270.896 222.136 270.728 222.88 270.392 223.504C270.072 224.128 269.624 224.64 269.048 225.04C268.488 225.424 267.832 225.712 267.08 225.904C266.328 226.08 265.52 226.168 264.656 226.168C263.36 226.168 262.104 225.976 260.888 225.592C259.688 225.192 258.6 224.616 257.624 223.864L258.848 221.56C259.056 221.768 259.352 222 259.736 222.256C260.136 222.512 260.592 222.752 261.104 222.976C261.632 223.184 262.2 223.368 262.808 223.528C263.416 223.672 264.048 223.744 264.704 223.744C265.76 223.744 266.576 223.56 267.152 223.192C267.728 222.824 268.016 222.28 268.016 221.56C268.016 221.128 267.904 220.768 267.68 220.48C267.472 220.192 267.168 219.944 266.768 219.736C266.368 219.512 265.88 219.312 265.304 219.136C264.728 218.96 264.072 218.776 263.336 218.584C262.488 218.36 261.744 218.128 261.104 217.888C260.48 217.632 259.96 217.328 259.544 216.976C259.128 216.624 258.808 216.216 258.584 215.752C258.376 215.272 258.272 214.696 258.272 214.024C258.272 213.192 258.432 212.456 258.752 211.816C259.072 211.16 259.504 210.616 260.048 210.184C260.608 209.736 261.264 209.4 262.016 209.176C262.768 208.952 263.584 208.84 264.464 208.84C265.616 208.84 266.68 209.024 267.656 209.392C268.632 209.76 269.488 210.216 270.224 210.76L269 212.968ZM278.944 226.24C277.968 226.24 277.08 226.072 276.28 225.736C275.48 225.384 274.792 224.912 274.216 224.32C273.656 223.728 273.216 223.04 272.896 222.256C272.592 221.472 272.44 220.64 272.44 219.76C272.44 218.88 272.592 218.048 272.896 217.264C273.216 216.464 273.656 215.768 274.216 215.176C274.792 214.568 275.48 214.096 276.28 213.76C277.08 213.408 277.976 213.232 278.968 213.232C279.944 213.232 280.824 213.408 281.608 213.76C282.408 214.112 283.088 214.584 283.648 215.176C284.208 215.752 284.632 216.432 284.92 217.216C285.224 217.984 285.376 218.792 285.376 219.64C285.376 219.832 285.368 220.016 285.352 220.192C285.336 220.352 285.32 220.488 285.304 220.6H275.248C275.296 221.16 275.424 221.664 275.632 222.112C275.856 222.56 276.136 222.952 276.472 223.288C276.824 223.608 277.216 223.856 277.648 224.032C278.096 224.208 278.56 224.296 279.04 224.296C279.392 224.296 279.736 224.256 280.072 224.176C280.424 224.08 280.744 223.952 281.032 223.792C281.32 223.616 281.576 223.408 281.8 223.168C282.024 222.928 282.2 222.664 282.328 222.376L284.584 223.024C284.152 223.968 283.432 224.744 282.424 225.352C281.432 225.944 280.272 226.24 278.944 226.24ZM282.76 218.776C282.712 218.248 282.576 217.76 282.352 217.312C282.144 216.864 281.872 216.488 281.536 216.184C281.2 215.864 280.808 215.616 280.36 215.44C279.912 215.264 279.44 215.176 278.944 215.176C278.448 215.176 277.976 215.264 277.528 215.44C277.096 215.616 276.712 215.864 276.376 216.184C276.04 216.488 275.768 216.864 275.56 217.312C275.352 217.76 275.224 218.248 275.176 218.776H282.76ZM306.729 226H304.089V218.968C304.089 217.8 303.897 216.944 303.513 216.4C303.129 215.856 302.569 215.584 301.833 215.584C301.081 215.584 300.393 215.864 299.769 216.424C299.161 216.968 298.721 217.68 298.449 218.56V226H295.809V218.968C295.809 217.784 295.617 216.928 295.233 216.4C294.849 215.856 294.297 215.584 293.577 215.584C292.825 215.584 292.137 215.856 291.513 216.4C290.889 216.944 290.441 217.656 290.169 218.536V226H287.529V213.448H289.929V215.968C290.425 215.088 291.073 214.416 291.873 213.952C292.689 213.472 293.617 213.232 294.657 213.232C295.697 213.232 296.513 213.504 297.105 214.048C297.713 214.592 298.089 215.272 298.233 216.088C298.761 215.16 299.425 214.456 300.225 213.976C301.025 213.48 301.937 213.232 302.961 213.232C303.697 213.232 304.305 213.376 304.785 213.664C305.281 213.936 305.673 214.304 305.961 214.768C306.249 215.232 306.449 215.776 306.561 216.4C306.673 217.008 306.729 217.656 306.729 218.344V226ZM309.771 226V213.448H312.412V226H309.771ZM309.771 211.384V208.48H312.412V211.384H309.771ZM329.312 221.608C329.312 222.296 329.168 222.912 328.88 223.456C328.608 224 328.232 224.464 327.752 224.848C327.288 225.216 326.736 225.504 326.096 225.712C325.456 225.904 324.776 226 324.056 226H315.92V208.96H324.704C325.296 208.96 325.832 209.088 326.312 209.344C326.792 209.6 327.2 209.936 327.536 210.352C327.872 210.752 328.128 211.216 328.304 211.744C328.496 212.256 328.592 212.776 328.592 213.304C328.592 214.136 328.376 214.92 327.944 215.656C327.528 216.376 326.928 216.912 326.144 217.264C327.12 217.552 327.888 218.08 328.448 218.848C329.024 219.6 329.312 220.52 329.312 221.608ZM326.552 221.104C326.552 220.752 326.488 220.416 326.36 220.096C326.248 219.776 326.088 219.496 325.88 219.256C325.688 219.016 325.448 218.824 325.16 218.68C324.872 218.536 324.56 218.464 324.224 218.464H318.608V223.672H324.056C324.408 223.672 324.736 223.608 325.04 223.48C325.344 223.336 325.608 223.152 325.832 222.928C326.056 222.688 326.232 222.416 326.36 222.112C326.488 221.792 326.552 221.456 326.552 221.104ZM318.608 211.288V216.304H323.552C323.888 216.304 324.192 216.24 324.464 216.112C324.752 215.984 325 215.816 325.208 215.608C325.432 215.384 325.6 215.12 325.712 214.816C325.84 214.512 325.904 214.176 325.904 213.808C325.904 213.072 325.696 212.472 325.28 212.008C324.864 211.528 324.336 211.288 323.696 211.288H318.608ZM337.419 226.24C336.427 226.24 335.531 226.064 334.731 225.712C333.947 225.36 333.275 224.888 332.715 224.296C332.155 223.704 331.723 223.016 331.419 222.232C331.115 221.432 330.963 220.6 330.963 219.736C330.963 218.872 331.115 218.048 331.419 217.264C331.723 216.464 332.155 215.768 332.715 215.176C333.291 214.584 333.971 214.112 334.755 213.76C335.555 213.408 336.443 213.232 337.419 213.232C338.395 213.232 339.275 213.408 340.059 213.76C340.859 214.112 341.539 214.584 342.099 215.176C342.675 215.768 343.115 216.464 343.419 217.264C343.723 218.048 343.875 218.872 343.875 219.736C343.875 220.6 343.723 221.432 343.419 222.232C343.115 223.016 342.675 223.704 342.099 224.296C341.539 224.888 340.859 225.36 340.059 225.712C339.275 226.064 338.395 226.24 337.419 226.24ZM333.675 219.76C333.675 220.368 333.771 220.928 333.963 221.44C334.155 221.952 334.419 222.4 334.755 222.784C335.091 223.152 335.483 223.448 335.931 223.672C336.395 223.88 336.891 223.984 337.419 223.984C337.947 223.984 338.435 223.88 338.883 223.672C339.347 223.448 339.747 223.144 340.083 222.76C340.419 222.376 340.683 221.928 340.875 221.416C341.067 220.904 341.163 220.344 341.163 219.736C341.163 219.144 341.067 218.592 340.875 218.08C340.683 217.552 340.419 217.096 340.083 216.712C339.747 216.328 339.347 216.032 338.883 215.824C338.435 215.6 337.947 215.488 337.419 215.488C336.907 215.488 336.419 215.6 335.955 215.824C335.507 216.048 335.115 216.352 334.779 216.736C334.443 217.12 334.171 217.576 333.963 218.104C333.771 218.616 333.675 219.168 333.675 219.76ZM346.241 208.48H348.881V222.376C348.881 222.84 349.001 223.208 349.241 223.48C349.481 223.736 349.817 223.864 350.249 223.864C350.425 223.864 350.625 223.832 350.849 223.768C351.089 223.704 351.313 223.632 351.521 223.552L351.905 225.616C351.521 225.792 351.065 225.928 350.537 226.024C350.009 226.136 349.537 226.192 349.121 226.192C348.209 226.192 347.497 225.944 346.985 225.448C346.489 224.952 346.241 224.248 346.241 223.336V208.48ZM358.548 226.24C357.7 226.24 356.916 226.072 356.196 225.736C355.476 225.384 354.852 224.912 354.324 224.32C353.796 223.728 353.38 223.04 353.076 222.256C352.788 221.456 352.644 220.6 352.644 219.688C352.644 218.808 352.78 217.984 353.052 217.216C353.34 216.432 353.732 215.744 354.228 215.152C354.74 214.56 355.332 214.096 356.004 213.76C356.692 213.408 357.444 213.232 358.26 213.232C359.268 213.232 360.156 213.48 360.924 213.976C361.692 214.456 362.292 215.072 362.724 215.824V208.48H365.364V222.88C365.364 223.184 365.412 223.4 365.508 223.528C365.62 223.656 365.812 223.728 366.084 223.744V226C365.812 226.048 365.588 226.08 365.412 226.096C365.252 226.112 365.116 226.12 365.004 226.12C364.476 226.12 364.044 225.984 363.708 225.712C363.372 225.44 363.188 225.088 363.156 224.656L363.108 223.72C362.644 224.504 362.012 225.12 361.212 225.568C360.412 226.016 359.524 226.24 358.548 226.24ZM359.196 223.984C359.58 223.984 359.964 223.92 360.348 223.792C360.732 223.664 361.084 223.488 361.404 223.264C361.724 223.04 361.996 222.776 362.22 222.472C362.46 222.168 362.628 221.84 362.724 221.488V218.2C362.58 217.8 362.372 217.432 362.1 217.096C361.844 216.76 361.548 216.472 361.212 216.232C360.876 215.992 360.516 215.808 360.132 215.68C359.764 215.552 359.388 215.488 359.004 215.488C358.476 215.488 357.988 215.608 357.54 215.848C357.108 216.088 356.732 216.408 356.412 216.808C356.092 217.208 355.836 217.664 355.644 218.176C355.468 218.688 355.38 219.216 355.38 219.76C355.38 220.336 355.476 220.88 355.668 221.392C355.876 221.904 356.156 222.352 356.508 222.736C356.86 223.12 357.26 223.424 357.708 223.648C358.172 223.872 358.668 223.984 359.196 223.984Z" fill="black"/>
<rect x="380" y="197" width="70" height="42" rx="6" fill="#FCAA2E" fill-opacity="0.2"/>
<path d="M403.504 221.608C403.504 222.328 403.36 222.96 403.072 223.504C402.784 224.048 402.384 224.504 401.872 224.872C401.376 225.24 400.792 225.52 400.12 225.712C399.464 225.904 398.76 226 398.008 226H389.776V208.96H398.896C399.488 208.96 400.024 209.088 400.504 209.344C400.984 209.6 401.392 209.936 401.728 210.352C402.064 210.752 402.32 211.216 402.496 211.744C402.688 212.256 402.784 212.776 402.784 213.304C402.784 214.136 402.576 214.92 402.16 215.656C401.744 216.376 401.136 216.912 400.336 217.264C401.312 217.552 402.08 218.072 402.64 218.824C403.216 219.56 403.504 220.488 403.504 221.608ZM400.168 220.984C400.168 220.68 400.112 220.392 400 220.12C399.904 219.832 399.768 219.584 399.592 219.376C399.416 219.168 399.208 219.008 398.968 218.896C398.728 218.768 398.464 218.704 398.176 218.704H393.088V223.192H398.008C398.312 223.192 398.592 223.136 398.848 223.024C399.12 222.912 399.352 222.76 399.544 222.568C399.736 222.36 399.888 222.12 400 221.848C400.112 221.576 400.168 221.288 400.168 220.984ZM393.088 211.792V216.088H397.504C398.064 216.088 398.536 215.896 398.92 215.512C399.32 215.128 399.52 214.6 399.52 213.928C399.52 213.272 399.336 212.752 398.968 212.368C398.616 211.984 398.176 211.792 397.648 211.792H393.088ZM411.585 226.24C410.561 226.24 409.641 226.064 408.825 225.712C408.009 225.36 407.313 224.888 406.737 224.296C406.177 223.688 405.745 222.992 405.441 222.208C405.137 221.424 404.985 220.6 404.985 219.736C404.985 218.856 405.137 218.024 405.441 217.24C405.745 216.456 406.177 215.768 406.737 215.176C407.313 214.568 408.009 214.088 408.825 213.736C409.641 213.384 410.561 213.208 411.585 213.208C412.609 213.208 413.521 213.384 414.321 213.736C415.137 214.088 415.825 214.568 416.385 215.176C416.961 215.768 417.401 216.456 417.705 217.24C418.009 218.024 418.161 218.856 418.161 219.736C418.161 220.6 418.009 221.424 417.705 222.208C417.401 222.992 416.969 223.688 416.409 224.296C415.849 224.888 415.161 225.36 414.345 225.712C413.529 226.064 412.609 226.24 411.585 226.24ZM408.297 219.736C408.297 220.296 408.377 220.808 408.537 221.272C408.713 221.72 408.945 222.112 409.233 222.448C409.537 222.784 409.889 223.048 410.289 223.24C410.689 223.416 411.121 223.504 411.585 223.504C412.049 223.504 412.481 223.416 412.881 223.24C413.281 223.048 413.625 222.784 413.913 222.448C414.217 222.112 414.449 221.712 414.609 221.248C414.785 220.784 414.873 220.272 414.873 219.712C414.873 219.168 414.785 218.664 414.609 218.2C414.449 217.736 414.217 217.336 413.913 217C413.625 216.664 413.281 216.408 412.881 216.232C412.481 216.04 412.049 215.944 411.585 215.944C411.121 215.944 410.689 216.04 410.289 216.232C409.889 216.424 409.537 216.688 409.233 217.024C408.945 217.36 408.713 217.76 408.537 218.224C408.377 218.688 408.297 219.192 408.297 219.736ZM420.307 208.48H423.523V221.968C423.523 222.432 423.635 222.792 423.859 223.048C424.083 223.304 424.403 223.432 424.819 223.432C425.011 223.432 425.219 223.4 425.443 223.336C425.683 223.272 425.907 223.192 426.115 223.096L426.547 225.544C426.115 225.752 425.611 225.912 425.035 226.024C424.459 226.136 423.939 226.192 423.475 226.192C422.467 226.192 421.683 225.928 421.123 225.4C420.579 224.856 420.307 224.088 420.307 223.096V208.48ZM433.156 226.24C432.292 226.24 431.492 226.072 430.756 225.736C430.02 225.4 429.388 224.936 428.86 224.344C428.332 223.752 427.916 223.064 427.612 222.28C427.324 221.48 427.18 220.624 427.18 219.712C427.18 218.8 427.316 217.952 427.588 217.168C427.876 216.384 428.268 215.696 428.764 215.104C429.26 214.512 429.852 214.048 430.54 213.712C431.228 213.376 431.98 213.208 432.796 213.208C433.724 213.208 434.556 213.432 435.292 213.88C436.044 214.328 436.628 214.912 437.044 215.632V208.48H440.26V222.304C440.26 222.64 440.316 222.88 440.428 223.024C440.54 223.168 440.732 223.248 441.004 223.264V226C440.444 226.112 439.988 226.168 439.636 226.168C439.06 226.168 438.588 226.024 438.22 225.736C437.852 225.448 437.644 225.072 437.596 224.608L437.524 223.816C437.06 224.616 436.428 225.224 435.628 225.64C434.844 226.04 434.02 226.24 433.156 226.24ZM433.996 223.504C434.3 223.504 434.612 223.456 434.932 223.36C435.252 223.248 435.548 223.096 435.82 222.904C436.092 222.712 436.332 222.488 436.54 222.232C436.764 221.976 436.932 221.696 437.044 221.392V218.392C436.916 218.04 436.732 217.72 436.492 217.432C436.268 217.128 436.004 216.872 435.7 216.664C435.412 216.44 435.1 216.264 434.764 216.136C434.444 216.008 434.124 215.944 433.804 215.944C433.324 215.944 432.876 216.048 432.46 216.256C432.06 216.464 431.716 216.752 431.428 217.12C431.14 217.472 430.916 217.88 430.756 218.344C430.596 218.808 430.516 219.288 430.516 219.784C430.516 220.312 430.604 220.8 430.78 221.248C430.956 221.696 431.196 222.088 431.5 222.424C431.804 222.76 432.164 223.024 432.58 223.216C433.012 223.408 433.484 223.504 433.996 223.504Z" fill="black"/>
<rect x="454" y="197" width="132" height="42" rx="6" fill="#FCAA2E" fill-opacity="0.2"/>
<path d="M475.608 222.544V226H463.632V208.96H475.392V212.416H467.568V215.728H474.288V218.92H467.568V222.544H475.608ZM480.351 213.4L482.631 216.952L482.871 217.408L483.111 216.952L485.367 213.4H489.303L484.935 219.712L489.399 226H485.463L483.087 222.472L482.871 222.016L482.655 222.472L480.279 226H476.343L480.807 219.712L476.439 213.4H480.351ZM498.855 225.328C498.327 225.552 497.719 225.76 497.031 225.952C496.359 226.144 495.679 226.24 494.991 226.24C494.511 226.24 494.055 226.176 493.623 226.048C493.207 225.936 492.839 225.752 492.519 225.496C492.199 225.224 491.943 224.872 491.751 224.44C491.575 224.008 491.487 223.488 491.487 222.88V216.304H489.879V213.4H491.487V209.392H495.327V213.4H497.895V216.304H495.327V221.56C495.327 221.976 495.431 222.28 495.639 222.472C495.847 222.648 496.111 222.736 496.431 222.736C496.719 222.736 497.015 222.688 497.319 222.592C497.623 222.496 497.887 222.392 498.111 222.28L498.855 225.328ZM508.343 216.688C507.415 216.704 506.575 216.856 505.823 217.144C505.071 217.432 504.527 217.864 504.191 218.44V226H500.351V213.4H503.879V215.944C504.311 215.096 504.863 214.432 505.535 213.952C506.223 213.472 506.951 213.224 507.719 213.208C507.895 213.208 508.023 213.208 508.103 213.208C508.183 213.208 508.263 213.216 508.343 213.232V216.688ZM513.373 226.24C512.749 226.24 512.165 226.144 511.621 225.952C511.093 225.744 510.637 225.464 510.253 225.112C509.869 224.744 509.565 224.32 509.341 223.84C509.117 223.344 509.005 222.808 509.005 222.232C509.005 221.608 509.133 221.04 509.389 220.528C509.661 220.016 510.037 219.576 510.517 219.208C510.997 218.84 511.565 218.552 512.221 218.344C512.877 218.136 513.605 218.032 514.405 218.032C514.933 218.032 515.445 218.08 515.941 218.176C516.437 218.256 516.869 218.384 517.237 218.56V217.984C517.237 216.528 516.397 215.8 514.717 215.8C514.029 215.8 513.373 215.92 512.749 216.16C512.125 216.384 511.469 216.728 510.781 217.192L509.653 214.792C510.485 214.248 511.349 213.84 512.245 213.568C513.141 213.296 514.093 213.16 515.101 213.16C517.005 213.16 518.477 213.608 519.517 214.504C520.557 215.4 521.077 216.712 521.077 218.44V221.68C521.077 222.064 521.133 222.336 521.245 222.496C521.373 222.64 521.589 222.728 521.893 222.76V226C521.557 226.08 521.253 226.128 520.981 226.144C520.709 226.176 520.461 226.192 520.237 226.192C519.517 226.192 518.973 226.056 518.605 225.784C518.237 225.496 518.005 225.096 517.909 224.584L517.837 224.008C517.277 224.728 516.605 225.28 515.821 225.664C515.053 226.048 514.237 226.24 513.373 226.24ZM514.501 223.48C514.917 223.48 515.317 223.408 515.701 223.264C516.101 223.12 516.429 222.928 516.685 222.688C517.053 222.4 517.237 222.096 517.237 221.776V220.576C516.901 220.448 516.533 220.352 516.133 220.288C515.749 220.208 515.389 220.168 515.053 220.168C514.349 220.168 513.765 220.328 513.301 220.648C512.853 220.968 512.629 221.384 512.629 221.896C512.629 222.36 512.805 222.744 513.157 223.048C513.509 223.336 513.957 223.48 514.501 223.48ZM538.259 221.632C538.259 222.368 538.107 223.008 537.803 223.552C537.499 224.096 537.083 224.552 536.555 224.92C536.027 225.272 535.411 225.544 534.707 225.736C534.003 225.912 533.259 226 532.475 226H524.171V208.96H533.651C534.243 208.96 534.779 209.088 535.259 209.344C535.739 209.6 536.147 209.936 536.483 210.352C536.819 210.752 537.075 211.216 537.251 211.744C537.443 212.256 537.539 212.784 537.539 213.328C537.539 214.144 537.331 214.912 536.915 215.632C536.515 216.352 535.907 216.896 535.091 217.264C536.067 217.552 536.835 218.064 537.395 218.8C537.971 219.536 538.259 220.48 538.259 221.632ZM534.251 220.84C534.251 220.312 534.099 219.864 533.795 219.496C533.491 219.128 533.107 218.944 532.643 218.944H528.107V222.664H532.475C532.987 222.664 533.411 222.496 533.747 222.16C534.083 221.824 534.251 221.384 534.251 220.84ZM528.107 212.32V215.848H531.971C532.403 215.848 532.787 215.704 533.123 215.416C533.459 215.128 533.627 214.68 533.627 214.072C533.627 213.512 533.475 213.08 533.171 212.776C532.883 212.472 532.531 212.32 532.115 212.32H528.107ZM546.265 226.24C545.193 226.24 544.233 226.064 543.385 225.712C542.553 225.36 541.849 224.888 541.273 224.296C540.697 223.688 540.257 222.992 539.953 222.208C539.665 221.408 539.521 220.576 539.521 219.712C539.521 218.848 539.665 218.024 539.953 217.24C540.257 216.44 540.697 215.744 541.273 215.152C541.849 214.544 542.553 214.064 543.385 213.712C544.233 213.344 545.193 213.16 546.265 213.16C547.337 213.16 548.289 213.344 549.121 213.712C549.953 214.064 550.657 214.544 551.233 215.152C551.809 215.744 552.249 216.44 552.553 217.24C552.857 218.024 553.009 218.848 553.009 219.712C553.009 220.576 552.857 221.408 552.553 222.208C552.265 222.992 551.833 223.688 551.257 224.296C550.681 224.888 549.969 225.36 549.121 225.712C548.289 226.064 547.337 226.24 546.265 226.24ZM543.457 219.712C543.457 220.704 543.721 221.504 544.249 222.112C544.777 222.704 545.449 223 546.265 223C546.665 223 547.033 222.92 547.369 222.76C547.705 222.6 547.993 222.376 548.233 222.088C548.489 221.8 548.689 221.456 548.833 221.056C548.977 220.64 549.049 220.192 549.049 219.712C549.049 218.72 548.785 217.928 548.257 217.336C547.729 216.728 547.065 216.424 546.265 216.424C545.865 216.424 545.489 216.504 545.137 216.664C544.801 216.824 544.505 217.048 544.249 217.336C544.009 217.624 543.817 217.976 543.673 218.392C543.529 218.792 543.457 219.232 543.457 219.712ZM554.866 208.48H558.706V221.512C558.706 222.472 559.114 222.952 559.93 222.952C560.122 222.952 560.33 222.928 560.554 222.88C560.794 222.816 561.01 222.728 561.202 222.616L561.706 225.496C561.226 225.72 560.674 225.896 560.05 226.024C559.426 226.152 558.842 226.216 558.298 226.216C557.194 226.216 556.346 225.928 555.754 225.352C555.162 224.776 554.866 223.944 554.866 222.856V208.48ZM568.185 226.24C567.321 226.24 566.521 226.08 565.785 225.76C565.065 225.424 564.441 224.96 563.913 224.368C563.385 223.776 562.969 223.088 562.665 222.304C562.377 221.504 562.233 220.632 562.233 219.688C562.233 218.776 562.369 217.92 562.641 217.12C562.913 216.32 563.297 215.632 563.793 215.056C564.289 214.464 564.873 214 565.545 213.664C566.233 213.328 566.985 213.16 567.801 213.16C568.681 213.16 569.473 213.368 570.177 213.784C570.897 214.2 571.449 214.76 571.833 215.464V208.48H575.673V221.68C575.673 222.064 575.729 222.336 575.841 222.496C575.969 222.64 576.185 222.728 576.489 222.76V226C576.137 226.08 575.833 226.128 575.577 226.144C575.321 226.176 575.081 226.192 574.857 226.192C574.185 226.192 573.641 226.056 573.225 225.784C572.809 225.496 572.569 225.088 572.505 224.56L572.433 223.912C571.985 224.696 571.377 225.28 570.609 225.664C569.857 226.048 569.049 226.24 568.185 226.24ZM569.217 223C569.745 223 570.249 222.848 570.729 222.544C571.225 222.224 571.601 221.792 571.857 221.248V218.608C571.617 217.968 571.225 217.448 570.681 217.048C570.153 216.632 569.601 216.424 569.025 216.424C568.609 216.424 568.225 216.52 567.873 216.712C567.537 216.888 567.241 217.128 566.985 217.432C566.729 217.736 566.529 218.088 566.385 218.488C566.257 218.888 566.193 219.312 566.193 219.76C566.193 220.224 566.265 220.656 566.409 221.056C566.569 221.456 566.777 221.8 567.033 222.088C567.305 222.376 567.625 222.6 567.993 222.76C568.377 222.92 568.785 223 569.217 223Z" fill="black"/>
</svg>
