<svg width="65" height="65" viewBox="0 0 65 65" fill="none" xmlns="http://www.w3.org/2000/svg">
<rect width="65" height="65" rx="5" fill="#F0F0F0"/>
<path d="M52.1414 52.9998H19.328C19.2301 52.9725 19.1345 52.9361 19.0343 52.9224C15.2451 52.3942 12.5376 48.6171 13.2663 44.8741C13.9221 41.5068 16.7253 39.1868 20.1569 39.1868C30.593 39.1846 41.029 39.1891 51.4628 39.1777C52.2006 39.1777 52.7244 39.4077 52.9976 40.1089V52.1392C52.9976 52.7448 52.9976 52.9975 52.1391 52.9975L52.1414 52.9998ZM21.0951 46.1514C21.1065 45.4843 20.5509 44.9015 19.9064 44.9037C19.3007 44.9037 18.7292 45.4365 18.7109 46.0193C18.6882 46.6796 19.237 47.2761 19.8814 47.2875C20.503 47.2989 21.086 46.7524 21.0951 46.1514Z" fill="#FFB800"/>
<path opacity="0.7" d="M22.3223 36.7306C23.3789 36.1182 24.4332 35.5057 25.4897 34.8955C31.6152 31.3598 37.743 27.824 43.8707 24.2882C44.7246 23.7942 45.3349 23.9535 45.8245 24.7982C47.6462 27.9515 49.4656 31.1048 51.2873 34.2581C51.8088 35.1597 51.6312 35.7129 50.7545 36.2753C50.1146 36.6851 49.4611 36.8285 48.7028 36.8262C40.0588 36.8057 31.4148 36.8126 22.7709 36.8126C22.6297 36.8126 22.4885 36.8126 22.3473 36.8126C22.3405 36.7852 22.3314 36.7579 22.3245 36.7283L22.3223 36.7306Z" fill="#FFB800"/>
<path opacity="0.5" d="M17.272 36.876C17.379 36.6779 17.4336 36.5663 17.4951 36.4616C21.5848 29.3787 25.6746 22.2957 29.7643 15.2105C30.2516 14.3681 30.8505 14.1996 31.6839 14.68C34.8605 16.5105 38.0371 18.3433 41.2114 20.1784C42.0426 20.6588 42.1723 21.2598 41.7397 22.109C41.3776 22.8216 40.8562 23.2975 40.1639 23.6936C32.6745 27.9898 25.2032 32.3156 17.7251 36.6323C17.6067 36.7006 17.4837 36.7621 17.2742 36.8737L17.272 36.876Z" fill="#FFB800"/>
<path opacity="0.3" d="M13 39.3168C13 39.187 13 39.0573 13 38.9298C13 30.7813 13 22.6329 13 14.4822C13 13.4212 13.4235 13 14.4915 13C18.1235 13 21.7556 13 25.3876 13C26.3645 13 26.7789 13.4553 26.829 14.4343C26.8677 15.2062 26.6628 15.855 26.2756 16.5221C21.9377 23.9898 17.6271 31.4712 13.3097 38.948C13.2345 39.08 13.1526 39.2098 13.0751 39.3396C13.0501 39.3327 13.025 39.3236 13 39.3168V39.3168Z" fill="#FFB800"/>
</svg>
