<svg width="65" height="66" viewBox="0 0 65 66" fill="none" xmlns="http://www.w3.org/2000/svg">
<rect y="0.854492" width="65" height="65" rx="5" fill="#F0F0F0"/>
<path opacity="0.5" d="M43.0799 26.0544V33.7082C43.2324 33.7082 43.3627 33.7082 43.493 33.7082C44.9378 33.7082 46.3827 33.7082 47.8276 33.7082C47.9115 33.7082 47.9965 33.7063 48.0804 33.7082C48.5157 33.7227 48.8043 33.9804 48.8014 34.352C48.7985 34.7246 48.5119 34.9861 48.0737 34.988C46.653 34.9929 45.2322 34.99 43.8115 34.99C43.574 34.99 43.3366 34.99 43.0779 34.99V42.6438H43.4795C44.9485 42.6438 46.4174 42.6438 47.8864 42.6438C48.0071 42.6438 48.1287 42.64 48.2474 42.6544C48.5621 42.695 48.7985 42.9614 48.8024 43.2683C48.8063 43.5752 48.5756 43.8493 48.2629 43.8937C48.1326 43.9121 47.9984 43.9082 47.8662 43.9082C46.3972 43.9082 44.9282 43.9169 43.4592 43.9024C43.1503 43.8995 43.0451 43.969 43.049 44.2981C43.0673 45.7787 43.0577 47.2603 43.0567 48.7408C43.0567 48.8731 43.0586 49.0072 43.0374 49.1366C42.9882 49.4338 42.7257 49.651 42.4303 49.6549C42.1253 49.6587 41.8464 49.4232 41.8039 49.1144C41.7875 48.9956 41.7923 48.874 41.7923 48.7534C41.7923 47.2844 41.7923 45.8154 41.7923 44.3464C41.7923 44.2171 41.7923 44.0877 41.7923 43.9333H34.1549C34.1491 44.0655 34.1385 44.1929 34.1385 44.3203C34.1375 45.7768 34.1385 47.2342 34.1385 48.6906C34.1385 48.7746 34.1414 48.8595 34.1385 48.9435C34.1201 49.374 33.8528 49.6635 33.4822 49.6539C33.1241 49.6452 32.8625 49.3643 32.8567 48.9512C32.8471 48.2293 32.8538 47.5064 32.8538 46.7844C32.8538 45.8463 32.8538 44.9081 32.8538 43.9391H25.1981C25.1981 44.0819 25.1981 44.2103 25.1981 44.3387C25.1981 45.8077 25.1981 47.2767 25.1981 48.7457C25.1981 48.8779 25.2048 49.013 25.1826 49.1423C25.1344 49.4319 24.8574 49.6549 24.5678 49.6558C24.2754 49.6558 24.0051 49.4387 23.954 49.1443C23.9318 49.0149 23.9337 48.8808 23.9337 48.7486C23.9327 47.2796 23.9337 45.8106 23.9337 44.3416C23.9337 44.2132 23.9337 44.0839 23.9337 43.9082H23.5042C22.0352 43.9082 20.5662 43.9082 19.0972 43.9082C18.965 43.9082 18.8308 43.9111 18.7015 43.8899C18.4081 43.8406 18.189 43.5714 18.189 43.2779C18.189 42.9874 18.41 42.7094 18.6995 42.6612C18.8405 42.638 18.9872 42.6448 19.1319 42.6448C20.7081 42.6438 22.2852 42.6448 23.898 42.6448V34.9909C23.7696 34.9909 23.6422 34.9909 23.5138 34.9909C22.0574 34.9909 20.6 34.9909 19.1435 34.9909C19.047 34.9909 18.9505 34.9948 18.8549 34.989C18.4679 34.9649 18.1977 34.7091 18.1899 34.3616C18.1822 34.0036 18.4621 33.7159 18.8656 33.7121C19.9012 33.7024 20.9368 33.7082 21.9715 33.7082C22.6085 33.7082 23.2455 33.7082 23.9076 33.7082V26.0544C23.5109 26.0544 23.1403 26.0544 22.7687 26.0544C21.4686 26.0544 20.1685 26.0534 18.8675 26.0534C18.5567 26.0534 18.2922 25.9222 18.2449 25.6181C18.2131 25.4116 18.2787 25.1288 18.4119 24.9772C18.5277 24.845 18.797 24.7997 18.9997 24.7977C20.5044 24.7832 22.0101 24.7813 23.5148 24.7977C23.8362 24.8006 23.9472 24.7263 23.9424 24.3827C23.9231 22.9137 23.9337 21.4447 23.9347 19.9757C23.9347 19.8551 23.9318 19.7344 23.9453 19.6147C23.9848 19.2798 24.259 19.0366 24.5784 19.0433C24.8998 19.0501 25.1759 19.3001 25.1903 19.6369C25.2087 20.0577 25.199 20.4795 25.199 20.9013C25.199 22.1763 25.199 23.4523 25.199 24.7591H32.8529V24.3605C32.8529 22.9282 32.8529 21.4949 32.8529 20.0626C32.8529 19.9786 32.8519 19.8937 32.8529 19.8097C32.8616 19.3435 33.1077 19.0472 33.4899 19.0443C33.8721 19.0405 34.1346 19.3368 34.1366 19.7991C34.1414 20.9071 34.1385 22.0142 34.1385 23.1222C34.1385 23.6627 34.1385 24.2022 34.1385 24.7659H41.775C41.7807 24.6327 41.7914 24.5062 41.7923 24.3788C41.7933 22.85 41.7923 21.3212 41.7943 19.7923C41.7943 19.3831 41.9718 19.1341 42.2952 19.0588C42.6726 18.9719 43.0326 19.2518 43.05 19.6755C43.0693 20.1446 43.0577 20.6147 43.0577 21.0837C43.0577 22.1917 43.0673 23.2988 43.0519 24.4068C43.048 24.7002 43.1223 24.7997 43.4302 24.7968C44.9349 24.7813 46.4406 24.7881 47.9453 24.7929C48.1104 24.7929 48.2918 24.7968 48.4385 24.8605C48.7059 24.9772 48.84 25.2147 48.7908 25.5071C48.7377 25.8247 48.5408 26.036 48.2059 26.0457C47.6645 26.0621 47.123 26.0544 46.5806 26.0553C45.4262 26.0553 44.2719 26.0553 43.0808 26.0553L43.0799 26.0544ZM25.2232 26.0737V33.6793H32.8287V26.0737H25.2232ZM41.7788 26.0833H34.1588V33.6793H41.7788V26.0833ZM32.8336 35.0102H25.227V42.6226H32.8345V35.0102H32.8336ZM34.1559 42.6226H41.7643V35.0083H34.1559V42.6226Z" fill="#FF7144"/>
<path d="M17.0954 15.8545C17.4158 16.033 17.6176 16.2772 17.5201 16.6691C17.4438 16.9789 17.1765 17.1314 16.7238 17.1362C16.5935 17.1382 16.4642 17.1362 16.2818 17.1362C16.2818 17.3003 16.2827 17.4383 16.2818 17.5773C16.2769 18.031 16.1254 18.2974 15.8156 18.3736C15.4237 18.4711 15.1795 18.2684 15.001 17.9489V15.8545C15.6998 15.8545 16.3976 15.8545 17.0964 15.8545H17.0954Z" fill="#FF7144"/>
<path d="M51.5568 15.8545C51.887 16.0524 52.026 16.3351 51.996 16.726C51.97 17.061 51.9989 17.3988 51.9883 17.7356C51.9758 18.1304 51.7277 18.3871 51.3705 18.3958C51.0095 18.4045 50.7489 18.1632 50.7161 17.7704C50.6997 17.5802 50.7132 17.3882 50.7132 17.1372C50.551 17.1372 50.413 17.1382 50.275 17.1372C49.8165 17.1324 49.55 16.9837 49.4719 16.6739C49.3724 16.2801 49.5732 16.035 49.8956 15.8555H51.5578L51.5568 15.8545Z" fill="#FF7144"/>
<path d="M15 50.7496C15.1708 50.4427 15.4083 50.2197 15.7828 50.322C16.4294 50.4987 16.2354 51.0749 16.3059 51.5671C16.5153 51.5671 16.7161 51.5526 16.9149 51.57C17.3097 51.6038 17.5481 51.8634 17.5403 52.2244C17.5317 52.5815 17.2749 52.8305 16.8811 52.8421C16.5452 52.8527 16.2065 52.8238 15.8725 52.8498C15.4816 52.8807 15.1998 52.7398 15.001 52.4107V50.7487L15 50.7496Z" fill="#FF7144"/>
<path d="M34.8683 15.8545C35.18 16.0398 35.3904 16.2811 35.2862 16.6749C35.2042 16.9857 34.9397 17.1343 34.4841 17.1362C33.8249 17.1391 33.1667 17.1391 32.5075 17.1362C32.0519 17.1343 31.7865 16.9847 31.7054 16.6749C31.6021 16.2821 31.8106 16.0398 32.1233 15.8555H34.8683V15.8545Z" fill="#FF7144"/>
<path d="M15 32.9771C15.1853 32.6654 15.4266 32.4549 15.8194 32.5592C16.1302 32.6412 16.2789 32.9047 16.2808 33.3612C16.2837 34.0205 16.2837 34.6787 16.2808 35.3379C16.2789 35.7945 16.1312 36.0579 15.8204 36.141C15.4276 36.2452 15.1863 36.0338 15 35.723V32.9781V32.9771Z" fill="#FF7144"/>
<path d="M28.9441 15.8545C29.2588 16.0379 29.4663 16.2801 29.364 16.673C29.2829 16.9837 29.0184 17.1343 28.5629 17.1353C27.9037 17.1382 27.2454 17.1382 26.5862 17.1353C26.1297 17.1333 25.8662 16.9857 25.7832 16.6749C25.678 16.2821 25.8893 16.0408 26.1992 15.8545H28.9441Z" fill="#FF7144"/>
<path d="M40.7924 15.8545C41.2113 16.144 41.3291 16.4095 41.1814 16.7415C41.0453 17.0474 40.7847 17.1362 40.4768 17.1362C39.7944 17.1362 39.1111 17.1382 38.4287 17.1362C37.9732 17.1343 37.7077 16.9837 37.6276 16.673C37.5263 16.2811 37.7319 16.0369 38.0475 15.8545H40.7924Z" fill="#FF7144"/>
<path d="M15 27.0524C15.2896 26.6335 15.555 26.5157 15.887 26.6634C16.192 26.7995 16.2818 27.0591 16.2808 27.368C16.2808 28.0504 16.2827 28.7337 16.2808 29.4161C16.2789 29.8726 16.1302 30.1361 15.8185 30.2172C15.4256 30.3195 15.1834 30.112 15 29.7973V27.0524Z" fill="#FF7144"/>
<path d="M15 38.901C15.1834 38.5854 15.4256 38.3798 15.8185 38.4811C16.1293 38.5612 16.2789 38.8257 16.2808 39.2822C16.2827 39.9415 16.2837 40.5997 16.2808 41.2589C16.2789 41.7164 16.1322 41.978 15.8214 42.0629C15.4276 42.17 15.1882 41.9558 15 41.6469V38.902V38.901Z" fill="#FF7144"/>
<path d="M23.0197 15.8545C23.3373 16.0359 23.542 16.2792 23.4416 16.672C23.3624 16.9828 23.097 17.1343 22.6413 17.1362C21.982 17.1391 21.3228 17.1391 20.6644 17.1362C20.2069 17.1343 19.9453 16.9876 19.8603 16.6768C19.7522 16.283 19.9675 16.0437 20.2744 15.8545H23.0197V15.8545Z" fill="#FF7144"/>
<path d="M46.7166 15.8545C47.0216 16.0446 47.2465 16.2859 47.1268 16.6768C47.0197 17.0272 46.7379 17.1372 46.3962 17.1372C45.7129 17.1372 45.0305 17.1391 44.3471 17.1372C43.8925 17.1353 43.6261 16.9828 43.548 16.672C43.4495 16.2801 43.6522 16.035 43.9707 15.8555H46.7157L46.7166 15.8545Z" fill="#FF7144"/>
<path d="M15 21.1282C15.1892 20.8213 15.4314 20.5983 15.8214 20.717C16.1717 20.8232 16.2818 21.105 16.2818 21.4467C16.2808 22.13 16.2837 22.8124 16.2818 23.4958C16.2798 23.9513 16.1293 24.2167 15.8185 24.2959C15.4256 24.3963 15.1824 24.1907 15.001 23.8741V21.1291L15 21.1282Z" fill="#FF7144"/>
<path d="M15 44.8254C15.1815 44.5079 15.4247 44.3033 15.8175 44.4036C16.1283 44.4828 16.2789 44.7482 16.2808 45.2038C16.2837 45.863 16.2827 46.5212 16.2808 47.1804C16.2789 47.6399 16.1341 47.8985 15.8223 47.9844C15.4285 48.0935 15.1892 47.8773 15 47.5713V44.8264V44.8254Z" fill="#FF7144"/>
<path d="M50.7173 51.5683C50.7173 51.299 50.6999 51.0935 50.7212 50.8917C50.7607 50.5211 51.0242 50.2953 51.3727 50.304C51.7163 50.3126 51.973 50.5607 51.9855 50.9304C52 51.3512 51.9991 51.772 51.9855 52.1928C51.974 52.5779 51.7317 52.826 51.3514 52.8395C50.9306 52.8539 50.5098 52.853 50.089 52.8395C49.7154 52.8289 49.4655 52.5818 49.45 52.2382C49.4336 51.8762 49.6701 51.6069 50.06 51.5703C50.2598 51.551 50.4625 51.5674 50.7163 51.5674L50.7173 51.5683Z" fill="#FF7144"/>
<path d="M51.9903 34.354C51.9903 34.7265 51.9961 35.0981 51.9884 35.4707C51.9797 35.8896 51.7345 36.1559 51.3658 36.1627C50.9952 36.1695 50.7221 35.9147 50.7143 35.4987C50.6999 34.7304 50.6989 33.9611 50.7143 33.1938C50.723 32.7798 51.001 32.5269 51.3736 32.5385C51.7403 32.55 51.9807 32.8174 51.9874 33.2382C51.9942 33.6108 51.9884 33.9824 51.9884 34.3549L51.9903 34.354Z" fill="#FF7144"/>
<path d="M33.4696 52.8445C33.0971 52.8445 32.7245 52.8512 32.353 52.8425C31.9573 52.8329 31.6967 52.5887 31.6832 52.2354C31.6687 51.8629 31.9197 51.5801 32.3327 51.5704C33.1125 51.553 33.8942 51.553 34.674 51.5723C35.0687 51.582 35.312 51.8571 35.3091 52.2152C35.3052 52.5848 35.0388 52.8348 34.6238 52.8435C34.2397 52.8512 33.8556 52.8454 33.4715 52.8454L33.4696 52.8445Z" fill="#FF7144"/>
<path d="M51.9907 28.4281C51.9907 28.8006 51.9965 29.1722 51.9887 29.5448C51.981 29.9646 51.7378 30.232 51.3701 30.2407C50.9975 30.2494 50.7234 29.9955 50.7147 29.5805C50.6993 28.8122 50.6993 28.043 50.7147 27.2747C50.7234 26.8616 51.0004 26.6049 51.3701 26.6145C51.7359 26.6242 51.9801 26.8935 51.9878 27.3114C51.9945 27.6839 51.9897 28.0555 51.9887 28.4281H51.9907Z" fill="#FF7144"/>
<path d="M51.9905 40.2698C51.9905 40.6424 51.9953 41.014 51.9886 41.3865C51.9809 41.8054 51.7385 42.0757 51.3726 42.0863C50.9903 42.0979 50.7199 41.8305 50.7132 41.3923C50.7006 40.6482 50.7016 39.9031 50.7132 39.1589C50.7199 38.7159 50.9825 38.4524 51.3678 38.4601C51.7482 38.4678 51.9838 38.74 51.9895 39.1888C51.9944 39.5488 51.9895 39.9089 51.9895 40.2698H51.9905Z" fill="#FF7144"/>
<path d="M27.5479 52.8446C27.1754 52.8446 26.8028 52.8513 26.4312 52.8426C26.0365 52.833 25.7749 52.5888 25.7595 52.2355C25.744 51.8639 25.9959 51.5792 26.409 51.5705C27.1889 51.5532 27.9697 51.5532 28.7505 51.5715C29.1472 51.5811 29.3885 51.8533 29.3856 52.2133C29.3827 52.584 29.1173 52.8339 28.7013 52.8426C28.3172 52.8504 27.933 52.8446 27.5489 52.8446H27.5479Z" fill="#FF7144"/>
<path d="M39.3997 52.8444C39.0271 52.8444 38.6556 52.8512 38.283 52.8425C37.8834 52.8338 37.6238 52.5964 37.6054 52.2431C37.5871 51.8686 37.8352 51.581 38.2463 51.5714C39.0262 51.553 39.807 51.553 40.5878 51.5714C40.999 51.581 41.249 51.8696 41.2306 52.2422C41.2133 52.5935 40.9498 52.8338 40.5531 52.8425C40.1689 52.8512 39.7848 52.8444 39.4007 52.8444H39.3997Z" fill="#FF7144"/>
<path d="M51.9907 22.5204C51.9907 22.8929 51.9974 23.2655 51.9887 23.6371C51.9791 24.0531 51.7271 24.3156 51.3544 24.3166C50.9952 24.3166 50.7258 24.0733 50.7171 23.6767C50.6998 22.8968 50.6998 22.115 50.7171 21.3351C50.7268 20.924 51.0136 20.673 51.3872 20.6914C51.7396 20.7087 51.98 20.9703 51.9887 21.368C51.9974 21.7521 51.9907 22.1362 51.9907 22.5204Z" fill="#FF7144"/>
<path d="M51.9907 46.2196C51.9907 46.5921 51.9974 46.9647 51.9887 47.3363C51.9791 47.732 51.7348 47.9936 51.3833 48.009C51.0097 48.0254 50.7258 47.7745 50.7171 47.3604C50.6998 46.5806 50.6998 45.7997 50.7171 45.0189C50.7258 44.6241 50.9991 44.3809 51.3582 44.3838C51.73 44.3867 51.9733 44.6502 51.9897 45.0672C51.9897 45.0787 51.9897 45.0913 51.9897 45.1029C51.9897 45.4754 51.9897 45.847 51.9897 46.2196H51.9907Z" fill="#FF7144"/>
<path d="M21.624 52.8446C21.2514 52.8446 20.8789 52.8523 20.5073 52.8427C20.1135 52.833 19.851 52.5859 19.8375 52.2346C19.8239 51.8775 20.0652 51.586 20.4532 51.5754C21.2447 51.5541 22.0381 51.5551 22.8305 51.5734C23.2262 51.5831 23.4675 51.8572 23.4636 52.2172C23.4598 52.5878 23.1953 52.8359 22.7774 52.8446C22.3932 52.8523 22.0091 52.8465 21.625 52.8465L21.624 52.8446Z" fill="#FF7144"/>
<path d="M45.3075 52.8449C44.9349 52.8449 44.5623 52.8527 44.1908 52.843C43.797 52.8324 43.5383 52.5843 43.5277 52.2292C43.5171 51.8701 43.7574 51.5834 44.1473 51.5738C44.9388 51.5535 45.7321 51.5535 46.5245 51.5738C46.9174 51.5834 47.1606 51.8643 47.1538 52.2224C47.1471 52.5756 46.8855 52.8324 46.4966 52.843C46.1008 52.8536 45.7042 52.8459 45.3075 52.8459V52.8449Z" fill="#FF7144"/>
</svg>
