<svg width="65" height="65" viewBox="0 0 65 65" fill="none" xmlns="http://www.w3.org/2000/svg">
<rect width="65" height="65" rx="5" fill="#F0F0F0"/>
<path d="M42.0799 24.1999V31.8537C42.2324 31.8537 42.3627 31.8537 42.493 31.8537C43.9378 31.8537 45.3827 31.8537 46.8276 31.8537C46.9115 31.8537 46.9965 31.8518 47.0804 31.8537C47.5157 31.8682 47.8043 32.1259 47.8014 32.4975C47.7985 32.8701 47.5119 33.1316 47.0737 33.1336C45.653 33.1384 44.2322 33.1355 42.8115 33.1355C42.574 33.1355 42.3366 33.1355 42.0779 33.1355V40.7893H42.4795C43.9485 40.7893 45.4175 40.7893 46.8864 40.7893C47.0071 40.7893 47.1287 40.7855 47.2474 40.7999C47.5621 40.8405 47.7985 41.1069 47.8024 41.4138C47.8063 41.7207 47.5756 41.9948 47.2629 42.0392C47.1326 42.0576 46.9984 42.0537 46.8662 42.0537C45.3972 42.0537 43.9282 42.0624 42.4592 42.0479C42.1503 42.045 42.0451 42.1145 42.049 42.4436C42.0673 43.9242 42.0577 45.4058 42.0567 46.8863C42.0567 47.0186 42.0586 47.1527 42.0374 47.2821C41.9882 47.5793 41.7257 47.7965 41.4303 47.8004C41.1253 47.8042 40.8464 47.5687 40.8039 47.2599C40.7875 47.1411 40.7923 47.0195 40.7923 46.8989C40.7923 45.4299 40.7923 43.9609 40.7923 42.4919C40.7923 42.3626 40.7923 42.2332 40.7923 42.0788H33.1549C33.1491 42.211 33.1385 42.3384 33.1385 42.4658C33.1375 43.9223 33.1385 45.3797 33.1385 46.8361C33.1385 46.9201 33.1414 47.0051 33.1385 47.089C33.1202 47.5195 32.8528 47.809 32.4822 47.7994C32.1241 47.7907 31.8625 47.5098 31.8567 47.0967C31.8471 46.3748 31.8538 45.6519 31.8538 44.9299C31.8538 43.9918 31.8538 43.0536 31.8538 42.0846H24.1981C24.1981 42.2274 24.1981 42.3558 24.1981 42.4842C24.1981 43.9532 24.1981 45.4222 24.1981 46.8912C24.1981 47.0234 24.2048 47.1585 24.1826 47.2879C24.1344 47.5774 23.8574 47.8004 23.5678 47.8013C23.2754 47.8013 23.0051 47.5842 22.954 47.2898C22.9318 47.1604 22.9337 47.0263 22.9337 46.8941C22.9327 45.4251 22.9337 43.9561 22.9337 42.4871C22.9337 42.3587 22.9337 42.2294 22.9337 42.0537H22.5042C21.0352 42.0537 19.5662 42.0537 18.0972 42.0537C17.965 42.0537 17.8308 42.0566 17.7015 42.0354C17.4081 41.9861 17.189 41.7169 17.189 41.4234C17.189 41.1329 17.41 40.855 17.6995 40.8067C17.8405 40.7835 17.9872 40.7903 18.1319 40.7903C19.7081 40.7893 21.2852 40.7903 22.898 40.7903V33.1364C22.7696 33.1364 22.6422 33.1364 22.5138 33.1364C21.0574 33.1364 19.6 33.1364 18.1435 33.1364C18.047 33.1364 17.9505 33.1403 17.8549 33.1345C17.4679 33.1104 17.1977 32.8546 17.1899 32.5072C17.1822 32.1491 17.4621 31.8615 17.8656 31.8576C18.9012 31.8479 19.9368 31.8537 20.9715 31.8537C21.6085 31.8537 22.2455 31.8537 22.9076 31.8537V24.1999C22.5109 24.1999 22.1403 24.1999 21.7687 24.1999C20.4686 24.1999 19.1685 24.1989 17.8675 24.1989C17.5567 24.1989 17.2922 24.0677 17.2449 23.7636C17.2131 23.5571 17.2787 23.2743 17.4119 23.1228C17.5277 22.9905 17.797 22.9452 17.9997 22.9432C19.5044 22.9288 21.0101 22.9268 22.5148 22.9432C22.8362 22.9461 22.9472 22.8718 22.9424 22.5282C22.9231 21.0592 22.9337 19.5902 22.9347 18.1212C22.9347 18.0006 22.9318 17.8799 22.9453 17.7602C22.9848 17.4253 23.259 17.1821 23.5784 17.1889C23.8998 17.1956 24.1759 17.4456 24.1903 17.7824C24.2087 18.2033 24.199 18.625 24.199 19.0468C24.199 20.3218 24.199 21.5978 24.199 22.9046H31.8529V22.506C31.8529 21.0737 31.8529 19.6404 31.8529 18.2081C31.8529 18.1241 31.8519 18.0392 31.8529 17.9552C31.8616 17.489 32.1077 17.1927 32.4899 17.1898C32.8721 17.186 33.1346 17.4823 33.1366 17.9446C33.1414 19.0526 33.1385 20.1597 33.1385 21.2677C33.1385 21.8082 33.1385 22.3477 33.1385 22.9114H40.775C40.7807 22.7782 40.7914 22.6517 40.7923 22.5243C40.7933 20.9955 40.7923 19.4667 40.7943 17.9378C40.7943 17.5286 40.9719 17.2796 41.2952 17.2043C41.6726 17.1174 42.0326 17.3973 42.05 17.821C42.0693 18.2901 42.0577 18.7602 42.0577 19.2292C42.0577 20.3373 42.0673 21.4443 42.0519 22.5523C42.048 22.8457 42.1223 22.9452 42.4302 22.9423C43.9349 22.9268 45.4406 22.9336 46.9453 22.9384C47.1104 22.9384 47.2918 22.9423 47.4385 23.006C47.7059 23.1228 47.84 23.3602 47.7908 23.6526C47.7377 23.9702 47.5408 24.1816 47.2059 24.1912C46.6645 24.2076 46.123 24.1999 45.5806 24.2009C44.4262 24.2009 43.2719 24.2009 42.0808 24.2009L42.0799 24.1999ZM24.2232 24.2192V31.8248H31.8287V24.2192H24.2232V24.2192ZM40.7788 24.2288H33.1588V31.8248H40.7788V24.2288ZM31.8336 33.1558H24.227V40.7681H31.8345V33.1558H31.8336ZM33.1559 40.7681H40.7643V33.1538H33.1559V40.7681Z" fill="#9AAFF8"/>
<path d="M16.0954 14C16.4158 14.1786 16.6176 14.4227 16.5201 14.8146C16.4438 15.1244 16.1765 15.2769 15.7238 15.2818C15.5935 15.2837 15.4642 15.2818 15.2818 15.2818C15.2818 15.4458 15.2827 15.5839 15.2818 15.7228C15.2769 16.1765 15.1254 16.4429 14.8156 16.5191C14.4237 16.6166 14.1795 16.4139 14.001 16.0944V14C14.6998 14 15.3976 14 16.0964 14H16.0954Z" fill="#446DFF"/>
<path d="M50.5566 14C50.8867 14.1979 51.0257 14.4807 50.9958 14.8716C50.9697 15.2065 50.9987 15.5443 50.9881 15.8811C50.9755 16.2759 50.7275 16.5326 50.3704 16.5413C50.0094 16.55 49.7488 16.3087 49.716 15.9159C49.6996 15.7257 49.7131 15.5337 49.7131 15.2827C49.5509 15.2827 49.4129 15.2837 49.2749 15.2827C48.8164 15.2779 48.55 15.1293 48.4719 14.8194C48.3724 14.4256 48.5732 14.1805 48.8956 14.001H50.5576L50.5566 14Z" fill="#446DFF"/>
<path d="M14 48.8951C14.1708 48.5882 14.4083 48.3652 14.7828 48.4675C15.4294 48.6442 15.2354 49.2204 15.3059 49.7126C15.5153 49.7126 15.7161 49.6982 15.9149 49.7155C16.3097 49.7493 16.5481 50.0089 16.5403 50.3699C16.5317 50.727 16.2749 50.976 15.8811 50.9876C15.5452 50.9982 15.2065 50.9693 14.8725 50.9953C14.4816 51.0262 14.1998 50.8853 14.001 50.5562V48.8942L14 48.8951Z" fill="#446DFF"/>
<path d="M33.8683 14C34.18 14.1853 34.3904 14.4266 34.2862 14.8204C34.2042 15.1312 33.9397 15.2798 33.4841 15.2818C32.8249 15.2846 32.1667 15.2846 31.5075 15.2818C31.0519 15.2798 30.7865 15.1302 30.7054 14.8204C30.6021 14.4276 30.8106 14.1853 31.1233 14.001H33.8683V14Z" fill="#446DFF"/>
<path d="M14 31.1221C14.1853 30.8104 14.4266 30.6 14.8194 30.7042C15.1302 30.7862 15.2789 31.0497 15.2808 31.5063C15.2837 32.1655 15.2837 32.8237 15.2808 33.4829C15.2789 33.9395 15.1312 34.203 14.8204 34.286C14.4276 34.3902 14.1863 34.1788 14 33.8681V31.1231V31.1221Z" fill="#446DFF"/>
<path d="M27.9441 14C28.2588 14.1834 28.4663 14.4256 28.364 14.8185C28.2829 15.1293 28.0184 15.2798 27.5629 15.2808C26.9037 15.2837 26.2454 15.2837 25.5862 15.2808C25.1297 15.2789 24.8662 15.1312 24.7832 14.8204C24.678 14.4276 24.8893 14.1863 25.1992 14H27.9441V14Z" fill="#446DFF"/>
<path d="M39.7924 14C40.2113 14.2896 40.3291 14.555 40.1814 14.887C40.0453 15.193 39.7847 15.2818 39.4768 15.2818C38.7944 15.2818 38.1111 15.2837 37.4287 15.2818C36.9732 15.2798 36.7077 15.1293 36.6276 14.8185C36.5263 14.4266 36.7319 14.1824 37.0475 14H39.7924V14Z" fill="#446DFF"/>
<path d="M14 25.1979C14.2896 24.779 14.555 24.6612 14.887 24.8089C15.192 24.945 15.2818 25.2046 15.2808 25.5135C15.2808 26.1959 15.2827 26.8792 15.2808 27.5616C15.2789 28.0181 15.1302 28.2816 14.8185 28.3627C14.4256 28.465 14.1834 28.2575 14 27.9428V25.1979V25.1979Z" fill="#446DFF"/>
<path d="M14 37.0465C14.1834 36.7309 14.4256 36.5253 14.8185 36.6266C15.1293 36.7068 15.2789 36.9712 15.2808 37.4277C15.2827 38.087 15.2837 38.7452 15.2808 39.4044C15.2789 39.8619 15.1322 40.1235 14.8214 40.2084C14.4276 40.3155 14.1882 40.1013 14 39.7924V37.0475V37.0465Z" fill="#446DFF"/>
<path d="M22.0193 14C22.3369 14.1815 22.5415 14.4247 22.4411 14.8175C22.362 15.1283 22.0966 15.2798 21.641 15.2818C20.9818 15.2846 20.3226 15.2846 19.6643 15.2818C19.2068 15.2798 18.9453 15.1331 18.8603 14.8223C18.7522 14.4285 18.9675 14.1892 19.2744 14H22.0193V14Z" fill="#446DFF"/>
<path d="M45.7166 14C46.0216 14.1901 46.2465 14.4314 46.1268 14.8223C46.0197 15.1727 45.7379 15.2827 45.3962 15.2827C44.7129 15.2827 44.0305 15.2846 43.3471 15.2827C42.8925 15.2808 42.6261 15.1283 42.548 14.8175C42.4495 14.4256 42.6522 14.1805 42.9707 14.001H45.7157L45.7166 14Z" fill="#446DFF"/>
<path d="M14 19.2737C14.1892 18.9668 14.4314 18.7438 14.8214 18.8625C15.1717 18.9687 15.2818 19.2505 15.2818 19.5922C15.2808 20.2755 15.2837 20.9579 15.2818 21.6413C15.2798 22.0968 15.1293 22.3622 14.8185 22.4414C14.4256 22.5418 14.1824 22.3362 14.001 22.0196V19.2746L14 19.2737Z" fill="#446DFF"/>
<path d="M14 42.9709C14.1815 42.6534 14.4247 42.4488 14.8175 42.5491C15.1283 42.6283 15.2789 42.8937 15.2808 43.3493C15.2837 44.0085 15.2827 44.6667 15.2808 45.326C15.2789 45.7854 15.1341 46.044 14.8223 46.1299C14.4285 46.239 14.1892 46.0228 14 45.7168V42.9719V42.9709Z" fill="#446DFF"/>
<path d="M49.7173 49.7143C49.7173 49.445 49.6999 49.2395 49.7212 49.0377C49.7607 48.6671 50.0242 48.4413 50.3727 48.4499C50.7163 48.4586 50.973 48.7067 50.9855 49.0763C51 49.4972 50.9991 49.918 50.9855 50.3388C50.974 50.7239 50.7317 50.972 50.3514 50.9855C49.9306 50.9999 49.5098 50.999 49.089 50.9855C48.7154 50.9748 48.4655 50.7278 48.45 50.3842C48.4336 50.0222 48.6701 49.7529 49.06 49.7163C49.2598 49.697 49.4625 49.7134 49.7163 49.7134L49.7173 49.7143Z" fill="#446DFF"/>
<path d="M50.9903 32.4995C50.9903 32.872 50.9961 33.2436 50.9884 33.6162C50.9797 34.0351 50.7345 34.3015 50.3658 34.3082C49.9952 34.315 49.7221 34.0602 49.7143 33.6442C49.6999 32.8759 49.6989 32.1066 49.7143 31.3393C49.723 30.9253 50.001 30.6724 50.3736 30.684C50.7403 30.6956 50.9807 30.9629 50.9874 31.3837C50.9942 31.7563 50.9884 32.1279 50.9884 32.5004L50.9903 32.4995Z" fill="#446DFF"/>
<path d="M32.4698 50.9904C32.0972 50.9904 31.7246 50.9972 31.353 50.9885C30.9573 50.9789 30.6967 50.7347 30.6832 50.3814C30.6687 50.0089 30.9197 49.7261 31.3328 49.7164C32.1126 49.699 32.8944 49.699 33.6743 49.7183C34.069 49.728 34.3123 50.0031 34.3094 50.3611C34.3055 50.7308 34.0391 50.9808 33.6241 50.9895C33.24 50.9972 32.8558 50.9914 32.4717 50.9914L32.4698 50.9904Z" fill="#446DFF"/>
<path d="M50.9907 26.5731C50.9907 26.9457 50.9965 27.3173 50.9887 27.6898C50.981 28.1097 50.7378 28.377 50.3701 28.3857C49.9975 28.3944 49.7234 28.1406 49.7147 27.7255C49.6993 26.9572 49.6993 26.188 49.7147 25.4197C49.7234 25.0066 50.0004 24.7499 50.3701 24.7595C50.7359 24.7692 50.9801 25.0385 50.9878 25.4564C50.9945 25.829 50.9897 26.2005 50.9887 26.5731H50.9907Z" fill="#446DFF"/>
<path d="M50.9901 38.4148C50.9901 38.7874 50.9949 39.159 50.9882 39.5316C50.9804 39.9504 50.7382 40.2207 50.3724 40.2313C49.9902 40.2429 49.7199 39.9755 49.7132 39.5373C49.7006 38.7932 49.7016 38.0481 49.7132 37.3039C49.7199 36.8609 49.9824 36.5974 50.3675 36.6051C50.7478 36.6129 50.9833 36.885 50.9891 37.3339C50.9939 37.6939 50.9891 38.0539 50.9891 38.4148H50.9901Z" fill="#446DFF"/>
<path d="M26.5479 50.9906C26.1754 50.9906 25.8028 50.9973 25.4312 50.9886C25.0365 50.979 24.7749 50.7348 24.7595 50.3815C24.744 50.0099 24.9959 49.7252 25.409 49.7165C26.1889 49.6992 26.9697 49.6992 27.7505 49.7175C28.1472 49.7271 28.3885 49.9993 28.3856 50.3593C28.3827 50.73 28.1173 50.9799 27.7013 50.9886C27.3172 50.9963 26.933 50.9906 26.5489 50.9906H26.5479Z" fill="#446DFF"/>
<path d="M38.3997 50.9904C38.0271 50.9904 37.6556 50.9972 37.283 50.9885C36.8834 50.9798 36.6238 50.7424 36.6054 50.3891C36.5871 50.0146 36.8352 49.727 37.2463 49.7174C38.0262 49.699 38.807 49.699 39.5878 49.7174C39.999 49.727 40.249 50.0156 40.2306 50.3882C40.2133 50.7395 39.9498 50.9798 39.5531 50.9885C39.1689 50.9972 38.7848 50.9904 38.4007 50.9904H38.3997Z" fill="#446DFF"/>
<path d="M50.9902 20.6664C50.9902 21.0389 50.997 21.4115 50.9883 21.7831C50.9786 22.1991 50.7267 22.4616 50.3541 22.4626C49.9951 22.4626 49.7258 22.2193 49.7171 21.8227C49.6998 21.0428 49.6998 20.261 49.7171 19.4811C49.7268 19.07 50.0134 18.819 50.387 18.8374C50.7393 18.8547 50.9796 19.1163 50.9883 19.514C50.997 19.8981 50.9902 20.2822 50.9902 20.6664Z" fill="#446DFF"/>
<path d="M50.9902 44.3646C50.9902 44.7372 50.997 45.1097 50.9883 45.4813C50.9786 45.877 50.7344 46.1386 50.3831 46.154C50.0096 46.1704 49.7258 45.9195 49.7171 45.5054C49.6998 44.7256 49.6998 43.9447 49.7171 43.1639C49.7258 42.7692 49.999 42.5259 50.358 42.5288C50.7296 42.5317 50.9728 42.7952 50.9892 43.2122C50.9892 43.2238 50.9892 43.2363 50.9892 43.2479C50.9892 43.6204 50.9892 43.992 50.9892 44.3646H50.9902Z" fill="#446DFF"/>
<path d="M20.624 50.9906C20.2514 50.9906 19.8789 50.9983 19.5073 50.9887C19.1135 50.979 18.851 50.7319 18.8375 50.3806C18.8239 50.0235 19.0652 49.732 19.4532 49.7214C20.2447 49.7001 21.0381 49.7011 21.8305 49.7194C22.2262 49.7291 22.4675 50.0032 22.4636 50.3632C22.4598 50.7338 22.1953 50.9819 21.7774 50.9906C21.3932 50.9983 21.0091 50.9925 20.625 50.9925L20.624 50.9906Z" fill="#446DFF"/>
<path d="M44.3075 50.9904C43.9349 50.9904 43.5623 50.9982 43.1908 50.9885C42.797 50.9779 42.5383 50.7298 42.5277 50.3747C42.5171 50.0156 42.7574 49.729 43.1473 49.7193C43.9388 49.699 44.7321 49.699 45.5246 49.7193C45.9174 49.729 46.1606 50.0098 46.1538 50.3679C46.1471 50.7212 45.8855 50.9779 45.4966 50.9885C45.1008 50.9991 44.7042 50.9914 44.3075 50.9914V50.9904Z" fill="#446DFF"/>
</svg>
