<svg width="65" height="65" viewBox="0 0 65 65" fill="none" xmlns="http://www.w3.org/2000/svg">
<rect width="65" height="65" rx="5" fill="#F0F0F0"/>
<path d="M50.9994 39.2473V41.1889C50.9633 41.3316 50.9245 41.4768 50.8883 41.6195C50.4285 43.4184 49.2246 44.5956 47.6074 45.4263C45.985 46.2595 44.4194 46.1754 42.8978 45.1638C41.7404 44.3943 40.8026 43.3929 39.8519 42.4043C39.0304 41.5507 38.2037 40.6997 37.3486 39.8767C36.7803 39.3289 36.0802 39.1148 35.2638 39.1378C33.7525 39.1785 32.2412 39.176 30.7299 39.1378C29.929 39.1174 29.2367 39.3263 28.6761 39.8639C27.8132 40.692 26.9762 41.5507 26.1469 42.4145C25.2504 43.3445 24.3747 44.2949 23.3 45.0339C22.5921 45.5205 21.8352 45.9002 20.9568 45.9817C19.8046 46.0888 18.7841 45.704 17.8412 45.1078C15.976 43.9255 14.8935 42.3024 15.0072 40.0372C15.0588 38.9874 15.0847 37.9351 15.157 36.8853C15.405 33.3792 15.8933 29.9037 16.5443 26.4486C17.278 22.5731 20.9361 19.7702 24.9275 20.0149C25.9816 20.0786 26.9348 20.4302 27.8804 20.843C28.8517 21.2659 29.8593 21.5666 30.9262 21.5946C31.9673 21.6227 33.011 21.5946 34.0547 21.6227C35.5454 21.6609 36.9482 21.3602 38.32 20.7793C39.0847 20.4557 39.9036 20.1474 40.7226 20.0633C44.9051 19.6301 48.6769 22.4508 49.4649 26.5378C50.1676 30.184 50.6687 33.8557 50.878 37.5631C50.909 38.1262 50.9607 38.6868 51.002 39.2499L50.9994 39.2473ZM23.5738 28.5558C22.8789 28.5558 22.2253 28.5431 21.5742 28.5584C20.8638 28.5762 20.2722 29.1291 20.2024 29.8069C20.1249 30.5484 20.5693 31.2185 21.2771 31.3841C21.5019 31.4376 21.7422 31.4325 21.9747 31.4351C22.4991 31.4427 23.0235 31.4351 23.5764 31.4351C23.5764 32.1001 23.5686 32.7218 23.5764 33.3436C23.5893 34.1232 24.1732 34.7195 24.9611 34.773C25.7025 34.824 26.3742 34.2838 26.4802 33.5245C26.5189 33.2416 26.506 32.9486 26.5086 32.6607C26.5137 32.2632 26.5086 31.8632 26.5086 31.4351C26.7023 31.4351 26.8418 31.4351 26.9813 31.4351C27.5187 31.43 28.0612 31.4529 28.596 31.4096C29.4485 31.3434 30.0349 30.5203 29.8541 29.6999C29.7043 29.0221 29.1643 28.566 28.4616 28.5533C27.8209 28.5405 27.1803 28.5507 26.506 28.5507C26.506 27.8933 26.5215 27.2844 26.5034 26.6728C26.4776 25.8065 25.842 25.195 25.0102 25.2077C24.1757 25.2205 23.579 25.8473 23.5738 26.7238C23.5712 27.3124 23.5738 27.901 23.5738 28.5507V28.5558ZM42.2933 32.732C42.2985 31.5956 41.3788 30.6809 40.2265 30.6732C39.0898 30.6656 38.1417 31.5956 38.1391 32.7193C38.1366 33.8455 39.0692 34.773 40.2136 34.7781C41.3581 34.7832 42.2881 33.8684 42.2933 32.732ZM43.6961 25.2128C42.5439 25.2103 41.6087 26.1148 41.6009 27.2461C41.5932 28.3673 42.5284 29.3024 43.6728 29.3126C44.8095 29.3228 45.7577 28.3978 45.7654 27.2691C45.7757 26.1377 44.8457 25.2154 43.6961 25.2128Z" fill="#FFB800"/>
</svg>
