<svg width="48" height="48" viewBox="0 0 48 48" fill="none" xmlns="http://www.w3.org/2000/svg">
<path fill-rule="evenodd" clip-rule="evenodd" d="M24 4.49316C12.95 4.49316 4 13.4432 4 24.4932C4 33.3432 9.725 40.8182 17.675 43.4682C18.675 43.6432 19.05 43.0432 19.05 42.5182C19.05 42.0432 19.025 40.4682 19.025 38.7932C14 39.7182 12.7 37.5682 12.3 36.4432C12.075 35.8682 11.1 34.0932 10.25 33.6182C9.55 33.2432 8.55 32.3182 10.225 32.2932C11.8 32.2682 12.925 33.7432 13.3 34.3432C15.1 37.3682 17.975 36.5182 19.125 35.9932C19.3 34.6932 19.825 33.8182 20.4 33.3182C15.95 32.8182 11.3 31.0932 11.3 23.4432C11.3 21.2682 12.075 19.4682 13.35 18.0682C13.15 17.5682 12.45 15.5182 13.55 12.7682C13.55 12.7682 15.225 12.2432 19.05 14.8182C20.65 14.3682 22.35 14.1432 24.05 14.1432C25.75 14.1432 27.45 14.3682 29.05 14.8182C32.875 12.2182 34.55 12.7682 34.55 12.7682C35.65 15.5182 34.95 17.5682 34.75 18.0682C36.025 19.4682 36.8 21.2432 36.8 23.4432C36.8 31.1182 32.125 32.8182 27.675 33.3182C28.4 33.9432 29.025 35.1432 29.025 37.0182C29.025 39.6932 29 41.8432 29 42.5182C29 43.0432 29.375 43.6682 30.375 43.4682C34.3454 42.1278 37.7954 39.5761 40.2396 36.1722C42.6838 32.7683 43.9989 28.6837 44 24.4932C44 13.4432 35.05 4.49316 24 4.49316Z" fill="black"/>
</svg>
