<svg width="585" height="138" viewBox="0 0 585 138" fill="none" xmlns="http://www.w3.org/2000/svg">
<rect opacity="0.21" y="70" width="159" height="68" rx="12" fill="#FD3E47"/>
<rect opacity="0.21" x="213" y="70" width="159" height="68" rx="12" fill="#FD3E47"/>
<rect opacity="0.21" x="426" y="70" width="159" height="68" rx="12" fill="#F97109"/>
<rect width="159" height="94" rx="12" fill="#FD3E47"/>
<rect x="213" width="159" height="94" rx="12" fill="#FD3E13"/>
<rect x="426" width="159" height="94" rx="12" fill="#F97109"/>
<path d="M58.5636 111.742H56.6876L56.0856 114.234H57.9476V115.186H55.8616L55.1756 118H54.1536L54.8536 115.186H52.5016L51.8156 118H50.7936L51.4936 115.186H49.9116V114.234H51.7176L52.3196 111.742H50.5276V110.846H52.5436L53.2156 108.06H54.2376L53.5516 110.846H55.9036L56.5756 108.06H57.5976L56.9116 110.846H58.5636V111.742ZM55.0776 114.234L55.6796 111.742H53.3276L52.7256 114.234H55.0776ZM60.2769 118V108.06H66.8429V109.18H61.5369V112.498H66.0029V113.548H61.5369V118H60.2769ZM68.439 118V108.06H71.883C72.6764 108.06 73.3717 108.191 73.969 108.452C74.5757 108.713 75.0797 109.068 75.481 109.516C75.8824 109.964 76.181 110.491 76.377 111.098C76.5824 111.695 76.685 112.335 76.685 113.016C76.685 113.772 76.573 114.458 76.349 115.074C76.125 115.681 75.803 116.203 75.383 116.642C74.963 117.071 74.4544 117.407 73.857 117.65C73.269 117.883 72.611 118 71.883 118H68.439ZM75.411 113.016C75.411 112.456 75.3317 111.943 75.173 111.476C75.0237 111 74.795 110.594 74.487 110.258C74.1884 109.922 73.8197 109.661 73.381 109.474C72.9424 109.278 72.443 109.18 71.883 109.18H69.699V116.88H71.883C72.4524 116.88 72.9564 116.782 73.395 116.586C73.843 116.39 74.2117 116.119 74.501 115.774C74.7997 115.429 75.0237 115.023 75.173 114.556C75.3317 114.08 75.411 113.567 75.411 113.016ZM82.2825 114.696C82.8798 114.799 83.3512 115.074 83.6965 115.522C84.0512 115.97 84.2285 116.525 84.2285 117.188C84.2285 117.617 84.1492 118.009 83.9905 118.364C83.8318 118.719 83.6032 119.022 83.3045 119.274C83.0152 119.526 82.6652 119.717 82.2545 119.848C81.8438 119.988 81.3865 120.058 80.8825 120.058C80.1732 120.058 79.5478 119.923 79.0065 119.652C78.4745 119.391 78.0592 119.017 77.7605 118.532L78.5865 117.706C78.8012 118.089 79.0905 118.387 79.4545 118.602C79.8185 118.826 80.2945 118.938 80.8825 118.938C81.5265 118.938 82.0305 118.793 82.3945 118.504C82.7678 118.215 82.9545 117.776 82.9545 117.188C82.9545 116.6 82.7538 116.133 82.3525 115.788C81.9605 115.433 81.3865 115.256 80.6305 115.256H80.2665V114.22H80.6585C81.3305 114.22 81.8438 114.061 82.1985 113.744C82.5625 113.417 82.7445 113.007 82.7445 112.512C82.7445 112.017 82.5718 111.649 82.2265 111.406C81.8812 111.163 81.4472 111.042 80.9245 111.042C80.4112 111.042 79.9585 111.154 79.5665 111.378C79.1838 111.593 78.8852 111.896 78.6705 112.288L77.9145 111.504C78.0358 111.271 78.1992 111.061 78.4045 110.874C78.6192 110.678 78.8618 110.51 79.1325 110.37C79.4125 110.23 79.7112 110.123 80.0285 110.048C80.3552 109.973 80.6958 109.936 81.0505 109.936C81.4892 109.936 81.8905 109.997 82.2545 110.118C82.6278 110.239 82.9452 110.407 83.2065 110.622C83.4772 110.837 83.6825 111.098 83.8225 111.406C83.9718 111.714 84.0465 112.055 84.0465 112.428C84.0465 112.708 84.0045 112.974 83.9205 113.226C83.8458 113.478 83.7292 113.707 83.5705 113.912C83.4212 114.117 83.2345 114.29 83.0105 114.43C82.7958 114.561 82.5532 114.649 82.2825 114.696ZM92.7691 116.88V118H86.0211V108.06H92.6431V109.18H87.2811V112.4H91.9431V113.45H87.2811V116.88H92.7691ZM98.1376 119.778V117.412H93.6436V116.32L98.5296 110.006H99.3696V116.292H100.602V117.412H99.3696V119.778H98.1376ZM94.9176 116.292H98.2636V111.91L94.9176 116.292ZM106.602 110.972H101.492V109.838H108.548L103.55 119.778H102.15L106.602 110.972Z" fill="black"/>
<path d="M272.281 111.742H270.405L269.803 114.234H271.665V115.186H269.579L268.893 118H267.871L268.571 115.186H266.219L265.533 118H264.511L265.211 115.186H263.629V114.234H265.435L266.037 111.742H264.245V110.846H266.261L266.933 108.06H267.955L267.269 110.846H269.621L270.293 108.06H271.315L270.629 110.846H272.281V111.742ZM268.795 114.234L269.397 111.742H267.045L266.443 114.234H268.795ZM273.995 118V108.06H280.561V109.18H275.255V112.498H279.721V113.548H275.255V118H273.995ZM282.157 118V108.06H285.601C286.394 108.06 287.089 108.191 287.687 108.452C288.293 108.713 288.797 109.068 289.199 109.516C289.6 109.964 289.899 110.491 290.095 111.098C290.3 111.695 290.403 112.335 290.403 113.016C290.403 113.772 290.291 114.458 290.067 115.074C289.843 115.681 289.521 116.203 289.101 116.642C288.681 117.071 288.172 117.407 287.575 117.65C286.987 117.883 286.329 118 285.601 118H282.157ZM289.129 113.016C289.129 112.456 289.049 111.943 288.891 111.476C288.741 111 288.513 110.594 288.205 110.258C287.906 109.922 287.537 109.661 287.099 109.474C286.66 109.278 286.161 109.18 285.601 109.18H283.417V116.88H285.601C286.17 116.88 286.674 116.782 287.113 116.586C287.561 116.39 287.929 116.119 288.219 115.774C288.517 115.429 288.741 115.023 288.891 114.556C289.049 114.08 289.129 113.567 289.129 113.016ZM296 114.696C296.598 114.799 297.069 115.074 297.414 115.522C297.769 115.97 297.946 116.525 297.946 117.188C297.946 117.617 297.867 118.009 297.708 118.364C297.55 118.719 297.321 119.022 297.022 119.274C296.733 119.526 296.383 119.717 295.972 119.848C295.562 119.988 295.104 120.058 294.6 120.058C293.891 120.058 293.266 119.923 292.724 119.652C292.192 119.391 291.777 119.017 291.478 118.532L292.304 117.706C292.519 118.089 292.808 118.387 293.172 118.602C293.536 118.826 294.012 118.938 294.6 118.938C295.244 118.938 295.748 118.793 296.112 118.504C296.486 118.215 296.672 117.776 296.672 117.188C296.672 116.6 296.472 116.133 296.07 115.788C295.678 115.433 295.104 115.256 294.348 115.256H293.984V114.22H294.376C295.048 114.22 295.562 114.061 295.916 113.744C296.28 113.417 296.462 113.007 296.462 112.512C296.462 112.017 296.29 111.649 295.944 111.406C295.599 111.163 295.165 111.042 294.642 111.042C294.129 111.042 293.676 111.154 293.284 111.378C292.902 111.593 292.603 111.896 292.388 112.288L291.632 111.504C291.754 111.271 291.917 111.061 292.122 110.874C292.337 110.678 292.58 110.51 292.85 110.37C293.13 110.23 293.429 110.123 293.746 110.048C294.073 109.973 294.414 109.936 294.768 109.936C295.207 109.936 295.608 109.997 295.972 110.118C296.346 110.239 296.663 110.407 296.924 110.622C297.195 110.837 297.4 111.098 297.54 111.406C297.69 111.714 297.764 112.055 297.764 112.428C297.764 112.708 297.722 112.974 297.638 113.226C297.564 113.478 297.447 113.707 297.288 113.912C297.139 114.117 296.952 114.29 296.728 114.43C296.514 114.561 296.271 114.649 296 114.696ZM306.487 116.88V118H299.739V108.06H306.361V109.18H300.999V112.4H305.661V113.45H300.999V116.88H306.487ZM312.989 116.88V118H307.963V116.88H309.951V111.42C309.867 111.532 309.737 111.653 309.559 111.784C309.382 111.905 309.181 112.022 308.957 112.134C308.743 112.237 308.519 112.325 308.285 112.4C308.052 112.475 307.847 112.512 307.669 112.512V111.336C307.875 111.336 308.103 111.28 308.355 111.168C308.607 111.047 308.845 110.911 309.069 110.762C309.303 110.603 309.499 110.454 309.657 110.314C309.825 110.165 309.923 110.062 309.951 110.006H311.211V116.88H312.989ZM318.34 114.696C318.937 114.799 319.409 115.074 319.754 115.522C320.109 115.97 320.286 116.525 320.286 117.188C320.286 117.617 320.207 118.009 320.048 118.364C319.889 118.719 319.661 119.022 319.362 119.274C319.073 119.526 318.723 119.717 318.312 119.848C317.901 119.988 317.444 120.058 316.94 120.058C316.231 120.058 315.605 119.923 315.064 119.652C314.532 119.391 314.117 119.017 313.818 118.532L314.644 117.706C314.859 118.089 315.148 118.387 315.512 118.602C315.876 118.826 316.352 118.938 316.94 118.938C317.584 118.938 318.088 118.793 318.452 118.504C318.825 118.215 319.012 117.776 319.012 117.188C319.012 116.6 318.811 116.133 318.41 115.788C318.018 115.433 317.444 115.256 316.688 115.256H316.324V114.22H316.716C317.388 114.22 317.901 114.061 318.256 113.744C318.62 113.417 318.802 113.007 318.802 112.512C318.802 112.017 318.629 111.649 318.284 111.406C317.939 111.163 317.505 111.042 316.982 111.042C316.469 111.042 316.016 111.154 315.624 111.378C315.241 111.593 314.943 111.896 314.728 112.288L313.972 111.504C314.093 111.271 314.257 111.061 314.462 110.874C314.677 110.678 314.919 110.51 315.19 110.37C315.47 110.23 315.769 110.123 316.086 110.048C316.413 109.973 316.753 109.936 317.108 109.936C317.547 109.936 317.948 109.997 318.312 110.118C318.685 110.239 319.003 110.407 319.264 110.622C319.535 110.837 319.74 111.098 319.88 111.406C320.029 111.714 320.104 112.055 320.104 112.428C320.104 112.708 320.062 112.974 319.978 113.226C319.903 113.478 319.787 113.707 319.628 113.912C319.479 114.117 319.292 114.29 319.068 114.43C318.853 114.561 318.611 114.649 318.34 114.696Z" fill="black"/>
<path d="M486.369 111.742H484.493L483.891 114.234H485.753V115.186H483.667L482.981 118H481.959L482.659 115.186H480.307L479.621 118H478.599L479.299 115.186H477.717V114.234H479.523L480.125 111.742H478.333V110.846H480.349L481.021 108.06H482.043L481.357 110.846H483.709L484.381 108.06H485.403L484.717 110.846H486.369V111.742ZM482.883 114.234L483.485 111.742H481.133L480.531 114.234H482.883ZM488.083 118V108.06H494.649V109.18H489.343V112.498H493.809V113.548H489.343V118H488.083ZM495.422 113.436C495.422 112.96 495.511 112.517 495.688 112.106C495.875 111.686 496.127 111.322 496.444 111.014C496.771 110.697 497.149 110.449 497.578 110.272C498.007 110.095 498.474 110.006 498.978 110.006C499.51 110.006 499.995 110.104 500.434 110.3C500.882 110.496 501.265 110.781 501.582 111.154C501.899 111.518 502.142 111.966 502.31 112.498C502.487 113.021 502.576 113.618 502.576 114.29C502.576 115.27 502.487 116.129 502.31 116.866C502.133 117.594 501.881 118.201 501.554 118.686C501.227 119.181 500.835 119.549 500.378 119.792C499.921 120.035 499.412 120.156 498.852 120.156C498.208 120.156 497.62 120.002 497.088 119.694C496.565 119.386 496.155 118.952 495.856 118.392L496.612 117.65C496.817 118.089 497.121 118.434 497.522 118.686C497.923 118.947 498.371 119.078 498.866 119.078C499.631 119.078 500.243 118.737 500.7 118.056C501.157 117.375 501.395 116.418 501.414 115.186C501.209 115.671 500.877 116.059 500.42 116.348C499.963 116.637 499.44 116.782 498.852 116.782C498.376 116.782 497.928 116.698 497.508 116.53C497.088 116.353 496.724 116.115 496.416 115.816C496.108 115.517 495.865 115.163 495.688 114.752C495.511 114.341 495.422 113.903 495.422 113.436ZM498.964 111.07C498.637 111.07 498.329 111.135 498.04 111.266C497.76 111.387 497.513 111.555 497.298 111.77C497.083 111.985 496.911 112.237 496.78 112.526C496.659 112.806 496.598 113.109 496.598 113.436C496.598 113.763 496.659 114.071 496.78 114.36C496.911 114.64 497.083 114.887 497.298 115.102C497.513 115.307 497.76 115.475 498.04 115.606C498.329 115.727 498.637 115.788 498.964 115.788C499.291 115.788 499.594 115.727 499.874 115.606C500.163 115.475 500.415 115.307 500.63 115.102C500.845 114.887 501.013 114.64 501.134 114.36C501.265 114.071 501.33 113.763 501.33 113.436C501.33 113.119 501.265 112.815 501.134 112.526C501.013 112.237 500.845 111.985 500.63 111.77C500.415 111.555 500.163 111.387 499.874 111.266C499.585 111.135 499.281 111.07 498.964 111.07ZM508.65 110.972H503.54V109.838H510.596L505.598 119.778H504.198L508.65 110.972ZM516.618 116.88V118H511.592V116.88H513.58V111.42C513.496 111.532 513.366 111.653 513.188 111.784C513.011 111.905 512.81 112.022 512.586 112.134C512.372 112.237 512.148 112.325 511.914 112.4C511.681 112.475 511.476 112.512 511.298 112.512V111.336C511.504 111.336 511.732 111.28 511.984 111.168C512.236 111.047 512.474 110.911 512.698 110.762C512.932 110.603 513.128 110.454 513.286 110.314C513.454 110.165 513.552 110.062 513.58 110.006H514.84V116.88H516.618ZM524.797 113.898C524.797 114.514 524.708 115.083 524.531 115.606C524.354 116.119 524.106 116.567 523.789 116.95C523.472 117.323 523.094 117.617 522.655 117.832C522.226 118.037 521.759 118.14 521.255 118.14C520.742 118.14 520.266 118.037 519.827 117.832C519.398 117.617 519.024 117.323 518.707 116.95C518.399 116.567 518.156 116.119 517.979 115.606C517.802 115.083 517.713 114.514 517.713 113.898C517.713 113.282 517.802 112.717 517.979 112.204C518.156 111.681 518.399 111.233 518.707 110.86C519.024 110.477 519.398 110.179 519.827 109.964C520.266 109.749 520.742 109.642 521.255 109.642C521.759 109.642 522.226 109.749 522.655 109.964C523.094 110.179 523.472 110.477 523.789 110.86C524.106 111.233 524.354 111.681 524.531 112.204C524.708 112.717 524.797 113.282 524.797 113.898ZM523.551 113.898C523.551 113.441 523.495 113.021 523.383 112.638C523.271 112.255 523.112 111.929 522.907 111.658C522.702 111.378 522.459 111.163 522.179 111.014C521.899 110.865 521.591 110.79 521.255 110.79C520.91 110.79 520.592 110.865 520.303 111.014C520.023 111.163 519.78 111.378 519.575 111.658C519.379 111.929 519.225 112.255 519.113 112.638C519.001 113.021 518.945 113.441 518.945 113.898C518.945 114.365 519.001 114.789 519.113 115.172C519.225 115.545 519.379 115.867 519.575 116.138C519.78 116.409 520.023 116.619 520.303 116.768C520.592 116.917 520.91 116.992 521.255 116.992C521.591 116.992 521.899 116.917 522.179 116.768C522.459 116.619 522.702 116.409 522.907 116.138C523.112 115.867 523.271 115.545 523.383 115.172C523.495 114.789 523.551 114.365 523.551 113.898ZM526.061 113.436C526.061 112.96 526.149 112.517 526.327 112.106C526.513 111.686 526.765 111.322 527.083 111.014C527.409 110.697 527.787 110.449 528.217 110.272C528.646 110.095 529.113 110.006 529.617 110.006C530.149 110.006 530.634 110.104 531.073 110.3C531.521 110.496 531.903 110.781 532.221 111.154C532.538 111.518 532.781 111.966 532.949 112.498C533.126 113.021 533.215 113.618 533.215 114.29C533.215 115.27 533.126 116.129 532.949 116.866C532.771 117.594 532.519 118.201 532.193 118.686C531.866 119.181 531.474 119.549 531.017 119.792C530.559 120.035 530.051 120.156 529.491 120.156C528.847 120.156 528.259 120.002 527.727 119.694C527.204 119.386 526.793 118.952 526.495 118.392L527.251 117.65C527.456 118.089 527.759 118.434 528.161 118.686C528.562 118.947 529.01 119.078 529.505 119.078C530.27 119.078 530.881 118.737 531.339 118.056C531.796 117.375 532.034 116.418 532.053 115.186C531.847 115.671 531.516 116.059 531.059 116.348C530.601 116.637 530.079 116.782 529.491 116.782C529.015 116.782 528.567 116.698 528.147 116.53C527.727 116.353 527.363 116.115 527.055 115.816C526.747 115.517 526.504 115.163 526.327 114.752C526.149 114.341 526.061 113.903 526.061 113.436ZM529.603 111.07C529.276 111.07 528.968 111.135 528.679 111.266C528.399 111.387 528.151 111.555 527.937 111.77C527.722 111.985 527.549 112.237 527.419 112.526C527.297 112.806 527.237 113.109 527.237 113.436C527.237 113.763 527.297 114.071 527.419 114.36C527.549 114.64 527.722 114.887 527.937 115.102C528.151 115.307 528.399 115.475 528.679 115.606C528.968 115.727 529.276 115.788 529.603 115.788C529.929 115.788 530.233 115.727 530.513 115.606C530.802 115.475 531.054 115.307 531.269 115.102C531.483 114.887 531.651 114.64 531.773 114.36C531.903 114.071 531.969 113.763 531.969 113.436C531.969 113.119 531.903 112.815 531.773 112.526C531.651 112.237 531.483 111.985 531.269 111.77C531.054 111.555 530.802 111.387 530.513 111.266C530.223 111.135 529.92 111.07 529.603 111.07Z" fill="black"/>
</svg>
